<?xml version="1.0" encoding="utf-8"?>
<!-- Generator: Adobe Illustrator 24.2.1, SVG Export Plug-In . SVG Version: 6.00 Build 0)  -->
<!DOCTYPE svg PUBLIC "-//W3C//DTD SVG 1.1//EN" "http://www.w3.org/Graphics/SVG/1.1/DTD/svg11.dtd" [
	<!ENTITY st0 "fill:#CC092F;">
	<!ENTITY st1 "fill:#0046AE;">
	<!ENTITY st2 "fill:#FFD200;">
	<!ENTITY st3 "fill-rule:evenodd;clip-rule:evenodd;">
	<!ENTITY st4 "fill-rule:evenodd;clip-rule:evenodd;fill:#FFD200;">
	<!ENTITY st5 "fill-rule:evenodd;clip-rule:evenodd;fill:#B07E5B;">
	<!ENTITY st6 "fill-rule:evenodd;clip-rule:evenodd;fill:#CC092F;">
	<!ENTITY st7 "fill-rule:evenodd;clip-rule:evenodd;fill:#007A50;">
	<!ENTITY st8 "fill-rule:evenodd;clip-rule:evenodd;fill:#0046AE;">
]>
<svg version="1.1" id="Layer_1" xmlns="http://www.w3.org/2000/svg" xmlns:xlink="http://www.w3.org/1999/xlink" x="0px" y="0px"
	 width="2000px" height="1000px" viewBox="0 0 2000 1000" style="enable-background:new 0 0 2000 1000;" xml:space="preserve">
<g id="Layer_1-2">
	<rect x="1333.3299561" y="0.00955" style="&st0;" width="666.6669922" height="1000"/>
	<rect x="-0.00196" y="0.00955" style="&st1;" width="666.6669922" height="1000"/>
	<rect x="666.6669922" y="0.00955" style="&st2;" width="666.6669922" height="1000"/>
	<g id="_136045896">
		<path id="rect2244" style="&st3;" d="M945.8851318,203.6040039L945.8851318,203.6040039
			c3.5800171,0,6.710022,0.9140015,8.5319824,2.3320007c-2.9675903,0.9106598-4.9818115,3.6659851-4.9489746,6.7700043v8.246994
			h8.2490234c3.1212769,0.0318604,5.8847046-2.0114136,6.7689819-5.0050049
			c1.4200439,1.822998,2.3319702,4.9499969,2.3319702,8.5319977c0,3.5800018-0.9130859,6.7089996-2.3319702,8.5330048
			c-0.9100952-2.9677124-3.6650391-4.9823303-6.7689819-4.9499969h-8.2490234v39.647995
			c-0.0217896,3.00354,1.8806152,5.6841431,4.7230225,6.6549988c-3.9331055,0.5350037-7.3179932,5.8210144-8.2480469,8.7030029
			c-0.9290771-2.8880005-4.3140869-8.1679993-8.2479858-8.7030029c2.8145142-0.9968872,4.6870117-3.66922,4.6630249-6.6549988
			v-39.6470032h-8.2460938c-3.1222534-0.0321808-5.8864746,2.0121765-6.7700195,5.0070038
			c-1.4199829-1.822998-2.3330078-4.951004-2.3330078-8.5330048c0-3.5800018,0.9130249-6.7080078,2.3330078-8.5319977
			c0.9112549,2.9671936,3.6661987,4.9811249,6.7700195,4.9490051h8.2459106v-8.2480011
			c0.0314331-3.1214752-2.012146-5.8848419-5.0059814-6.7689972c1.8239746-1.4199982,4.9519043-2.3339996,8.53302-2.3339996
			H945.8851318z"/>
		<path id="path2303" style="&st4;" d="M945.8852539,205.3120728v-0.0010071l0.0009766,0.0010071
			c1.6662598,0.0160522,3.3186646,0.304184,4.8920288,0.8529968c-1.8990479,1.6455841-2.9976196,4.0292053-3.0150146,6.5419922
			v8.246994c0.0076294,0.1152802,0.0267334,0.2295074,0.0570068,0.3410034v1.3079987h1.3079834
			c0.1113892,0.0306396,0.225708,0.0497437,0.3410034,0.0570068h8.2479858
			c2.541687-0.0125732,4.951355-1.1337738,6.5980225-3.0700073c0.5206909,1.5783997,0.7896729,3.2289429,0.7969971,4.8910065
			c-0.0162964,1.6659698-0.3047485,3.3180847-0.8540039,4.8910065c-1.6455688-1.8983765-4.0287476-2.9965057-6.5410156-3.0140076
			h-8.2479858c-0.1152344,0.007431-0.2294312,0.0261841-0.3410034,0.0559998h-1.3649902v41.2969971
			c0.071228,2.4317322,1.1915283,4.713562,3.0720215,6.2569885c-1.2033081,0.7538452-2.2787476,1.6946411-3.1859741,2.7869873
			c-0.6687012,0.924469-1.2404175,1.9153748-1.7060547,2.9570007c-0.4655762-1.0418701-1.0375977-2.0327759-1.7069702-2.9570007
			c-0.9185791-1.1184998-2.0136108-2.0794983-3.2419434-2.8450012c1.8699951-1.5266724,2.9898682-3.7863464,3.0720215-6.1990051
			v-39.6470337c-0.0078735-0.1152496-0.0269775-0.2294617-0.0570068-0.3410034v-0.8529968
			c0-0.173996,0.0460205-0.3399963,0.0570068-0.5110016h-9.9541016c-2.5418701,0.0129395-4.9514771,1.134491-6.5980225,3.0709991
			c-0.520813-1.5786896-0.7894287-3.2296295-0.7960205-4.8919983c0.015625-1.666275,0.303772-3.3187714,0.8530273-4.8919983
			c1.6449585,1.8993683,4.0284424,2.9980011,6.5410156,3.0149994h8.2480469
			c0.1149292-0.007843,0.2288208-0.026947,0.3400269-0.0570068h1.309021V221.29599
			c0.0305786-0.1114197,0.0496826-0.2256927,0.0570068-0.3410034v-8.2480011
			c-0.0130615-2.5423126-1.1350098-4.9523315-3.0720215-6.598999c1.5783081-0.5209045,3.2289429-0.7895355,4.8909912-0.7960052
			L945.8852539,205.3120728z"/>
		<polygon id="path2778" style="&st5;" points="957.875,347.2139893 968.7849731,328.6289978 974.2150269,304.0570068 
			973.9650269,274.9320068 967.164978,261.6489868 974.0250244,254.7879944 967.6049805,236.6390076 970.7849731,230.7129974 
			977.3250122,227.845993 1001.5900269,229.4669952 1033.401001,243.125 1030.4699707,246.5549927 1038.8900146,253.9779968 
			1033.2709961,256.2210083 1037.3310547,265.7019958 1030.9610596,265.5769958 1032.2709961,279.6099854 1025.1610107,294.4530029 
			1025.9100342,317.2160034 1037.4499512,340.2909851 1046.0610352,349.6470032 1052.6710205,348.3370056 1066.7010498,343.7219849 
			1091.7709961,330.875 1108.6109619,330.2510071 1107.0500488,297.321991 1144.5300293,266.7609863 1183.1409912,307.3630066 
			1183.3299561,665.1599731 1162.4300537,639.3400269 1156.3199463,640.0880127 1127.5710449,607.2210083 1108.0500488,546.2269897 
			1077.1800537,572.1090088 1089.3399658,591.3790283 1079.3599854,589.197998 1080.6099854,598.9890137 1070.69104,594.1870117 
			1067.8900146,605.9110107 1049.1109619,587.8880005 1021.5499878,596.9920044 1047.6800537,652.8740234 1087.4100342,699.3359985 
			1056.8499756,714.4920044 1028.7810059,673.8289795 1021.8610229,677.0100098 1043.1300049,721.6619873 999.8449707,747.2340088 
			959.9949951,724.28302 969.7249756,699.960022 974.4650269,674.8889771 941.7150269,713.0579834 909.7849731,701.0830078 
			927.5050049,687.9860229 977.2050171,599.4260254 951.0150146,586.5159912 932.1749878,605.5980225 929.8649902,594.6849976 
			921.3250122,598.302002 920.5150146,590.382019 911.2249756,591.0679932 921.4450073,572.1710205 894.3850098,540.177002 
			888.4550171,561.1950073 868.375,611.8369751 844.7349854,637.4069824 839.9349976,636.2219849 817.0449829,663.9119873 
			815.4249878,316.6549988 820.4749756,305.4289856 855.835022,267.2609863 890.5150146,295.1390076 891.7650146,330.1889954 
			909.8449707,331.1849976 938.4749756,346.2799988 952.1350098,349.3970032 		"/>
		<polygon id="path2516" style="&st6;" points="919.6049805,590.2440186 922.0750122,598.3579712 928.7750244,594.125 
			930.1849976,604.0020142 899.8449707,643.5170288 897.7349854,651.6300049 889.2650146,660.8029785 878.6749878,666.8010254 
			865.625,652.6890259 863.8649902,646.690979 867.7449951,633.6380005 879.7349854,627.9920044 891.375,628.3460083 
			915.375,591.6550293 		"/>
		<polygon id="path2750" style="&st6;" points="1071.6600342,594.8289795 1078.7209473,596.9470215 1080.4799805,589.8900146 
			1084.7099609,591.6550293 1109.0600586,627.9920044 1119.9899902,626.9349976 1134.4599609,635.7540283 1137.9899902,648.1010132 
			1122.4599609,666.0949707 1118.230957,667.1539917 1104.1209717,654.4509888 1100.9399414,645.9860229 1068.8409424,602.5910034 
					"/>
		<path id="rect2205" style="&st3;" d="M984.7948608,225.9599304L984.7948608,225.9599304v-0.0010071
			c5.4749756,0,15.4050293,0.4019928,28.440979,6.6560059c6.901062,3.3285828,14.0063477,6.2160492,21.2729492,8.6450043
			c2.5195313,0.8406219,5.0830078,1.543335,7.6789551,2.1049957c-2.3686523,0.4137421-4.6668701,1.1608276-6.8260498,2.2189941
			c-0.8358154,0.4082947-1.5437012,1.037735-2.0469971,1.8200073c0,0,7.8070068,4.8769989,9.3850098,8.8739929
			c-5.6140137,0.1659851-7.1669922,1.7630005-7.1669922,1.7630005c3.8389893,2.1229858,3.9820557,14.2770081,3.9820557,14.2770081
			s-4.1600342-4.2250061-6.5410156-4.5499878c0.4986572,3.8851318,0.7265625,7.8002625,0.6820068,11.7170105
			c0,4.8429871-6.7110596,11.5859985-6.7110596,17.5769958c0,14.17099,2.9870605,28.1159973,10.0679932,39.4750061
			c3.1779785,4.8787537,7.2966309,9.0751648,12.1149902,12.3439941c2.1379395-0.6390076,12.8000488-3.927002,20.2490234-8.0769958
			c13.0159912-7.2520142,19.8170166-14.519989,35.2659912-15.2449951v-11.7179565
			c0-6.2909851-2.2740479-11.9580078-2.2740479-17.973999c6.526001-1.7489929,24.644043-23.901001,41.3520508-33.7309875
			c24.5899658,15.927002,43.6280518,42.0700073,43.6280518,54.0950012c0,0-0.7380371,258.3429565,0,348.3429565
			c0,5.1859741,3.1280518,12.5139771,3.1280518,12.5139771c-8.9759521-3.7979736-25.4310303-26.3109741-28.8950195-34.8690186
			v4.0960083c-13.5550537-6.1820068-23.4830322-22.4260254-27.9279785-30.8300171
			c-0.0789795,1.2150269-0.2850342,4.2650146-0.2850342,4.2650146
			c-12.1109619-10.6170044-27.5310059-73.3759766-27.5310059-73.3759766l0.7969971-13.1970215
			c0,0,10.6619873,51.2410278,22.8100586,61.7739868V374.3079224l-9.6140137,8.9289856l-14.5610352-13.5950012V359.289917
			l12.9110107,12.0580139v-31.2279968c-1.8499756-2.7999878-3.1989746-5.0840149-4.2089844-6.8819885
			c-2.0909424,3.6459961-8.8439941,14.8089905-16.7790527,21.6719971
			c-1.3060303-5.3080139-9.9549561-10.3529968-9.9549561-10.3529968s-3.0219727,8.3429871-7.7359619,10.4089966
			c-1.6569824-2.92099-11.5469971-9.3850098-11.5469971-9.3850098s8.4620361,1.2850037,11.8890381,4.493988
			c2.9429932-0.6589966,3.6970215-12.2869873,3.6970215-12.2869873s12.4520264,6.0660095,14.618042,10.4089966
			c2.375-0.6419983,6.0710449-9.9859924,7.5090332-13.821991c-3.0783691-0.34375-6.173584-0.514679-9.2709961-0.5119934
			c-3.5500488,0-8.0949707,1.6830139-12.855957,3.9249878c-5.2290039,2.4620056-10.6999512,5.5799866-15.5849609,7.7929993
			c-6.30896,2.8569946-15.8859863,3.4240112-18.5429688,3.5270081c3.3343506,2.2999573,6.8322754,4.3530884,10.4659424,6.1430054
			c0,0-14.9029541-0.1369934-25.3699951-5.3470154c-3.8050537-2.2960205-7.4534912-4.8423157-10.9210205-7.6220093
			c1.5925293,4.6483154,4.0214844,8.9662781,7.1669922,12.7409973c-15.3729858-1.2999878-23.026001-10.0799866-25.197998-13.0249939
			c-1.406189,3.7622986-3.3409424,7.3051758-5.7459717,10.5220032c-2.3900757-3.2168579-4.3056641-6.760376-5.6879883-10.5220032
			c-2.1710205,2.9450073-9.8259888,11.7250061-25.1989746,13.0249939c3.1454468-3.7749329,5.574707-8.0928345,7.1680298-12.7409973
			c-3.4674072,2.7799072-7.1157837,5.3262024-10.9210205,7.6220093
			c-10.4680176,5.2099915-25.3690186,5.3469849-25.3690186,5.3469849c3.6157227-1.7888794,7.0944824-3.8421326,10.40802-6.1430054
			c-2.7609863-0.1180115-12.2279053-0.6929932-18.4860229-3.5270081
			c-4.8861084-2.2130127-10.3570557-5.3309937-15.5860596-7.7929993c-4.7600098-2.2420044-9.3049316-3.9249878-12.8549805-3.9249878
			c-3.0977783-0.002655-6.1932983,0.1682739-9.2719727,0.5119934c1.4390259,3.8359985,5.1359863,13.1799927,7.5100098,13.821991
			c2.164978-4.3429871,14.617981-10.4089966,14.617981-10.4089966s0.7530518,11.6279907,3.6970215,12.2869873
			c3.427002-3.2090149,11.8889771-4.493988,11.8889771-4.493988s-9.8900146,6.4639893-11.5479736,9.3850098
			c-4.7130127-2.0660095-7.7919922-10.4089966-7.7919922-10.4089966s-8.5928955,5.0440063-9.8979492,10.3529968
			c-7.9350586-6.8619995-14.6900635-18.0280151-16.7800293-21.6719971
			c-0.9730225,1.7409973-2.2629395,3.9379883-4.2089844,6.8819885v31.2279968l12.9119873-12.0580139v10.3519897
			l-14.5609741,13.5950012l-9.6140137-8.9289856v220.6430359c12.1470947-10.53302,22.8100586-61.7739868,22.8100586-61.7739868
			l0.7960205,13.1970215c0,0-15.4190674,62.7589722-27.5300293,73.3759766c0,0-0.2059937-3.0499878-0.2849731-4.2650146
			c-4.4450073,8.4039917-14.3720093,24.6480103-27.9290161,30.8300171v-4.0960083
			c-3.4639893,8.5579834-19.9189453,31.0710449-28.8959961,34.8690186c0,0,3.1280518-7.3280029,3.1280518-12.5139771
			c0.7390137-90,0-348.3429871,0-348.3429871c0-12.0239868,19.0390625-38.1679993,43.6290283-54.0950012
			c16.710083,9.8299866,34.8260498,31.9819946,41.3530273,33.7309875c0,6.0159912-2.276001,11.6830139-2.276001,17.973999
			v11.7749939c15.4819336,0.7090149,22.237915,7.9299927,35.2669678,15.1879883
			c7.401001,4.1220093,17.9499512,7.3989868,20.1929932,8.0769958c4.8331909-3.2698364,8.9702759-7.4653625,12.1719971-12.3439941
			c8.3079834-13.3269958,10.2950439-30.2669983,10.2950439-46.8710022c0-26.3659973-12.3140259-32.348999-24.4589844-36.5740051
			v-0.397995c0.0770264,0.0149994,0.151001,0.0429993,0.2290039,0.0570068
			c-0.0797729-0.0522766-0.15625-0.1093903-0.2290039-0.1710052v-2.1609955
			c5.4399414,0.1880035,15.6829834,4.0950012,22.4689941,4.0950012c0.065918,0,1.1370239-0.1600037,1.1370239-1.0240021
			c0-2.1329956-7.8690186-7.7919922-18.2589722-7.7919922c-6.2489014,0-9.78302,5.3470001-9.78302,5.3470001
			s0.5109863-14.7899933,14.3339844-14.7899933c2.1350098,0,6.5700073,0.0800018,9.15802-2.1609955
			c1.0980225-0.951004,0.8441162-3.6600037,3.9820557-5.7440033c3.4309082-2.2799988,9.2809448-2.3899994,13.2540283-2.3899994
			L984.7948608,225.9599304z M985.0789795,229.5440216h-0.0020142v-0.0010071
			c-1.2109985-0.0110016-2.5100098,0.0119934-3.8099976,0.0570068c-4.3339844,0.1519928-8.7320557,0.7819977-10.2969971,2.9570007
			c-0.8289795,1.1519928-1.6329346,1.9609985-0.7399902,3.3560028c0.5109863,0.7980042,3.9639893,0.6260071,7.0539551,0.6260071
			c4.6129761,0,8.8150024,3.9250031,13.0819702,3.9250031c3.3289795,0,6.559021-0.7969971,10.1270142-0.7969971
			c10.2779541,0,17.0689697,9.9889984,21.2719727,12.628006c-3.7600098,0.3639984-14.7520142-9.6130066-20.0209961-9.6130066
			c-4.3109741,0-5.9719849,1.0240021-10.1820068,1.0240021c-5.6950073,0-12.1040039-4.720993-16.0419922-4.720993
			c-3.0079346,0-3.8670044,0.9100037-3.8670044,2.2749939c0,6.5590057,14.4630127,9.0800018,13.5369873,9.4989929
			c-1.3469849,0.6119995-3.0700073,3.0910034-3.0700073,4.095993c0.118042,1.2770538,0.7554321,2.4495392,1.7630005,3.2429962
			c2.4413452,1.8262329,4.0085449,4.589447,4.322998,7.6220093c0,0-7.8779907-6.0870056-11.3200073-6.0870056
			c-6.6439819,0-5.473938,4.631012-4.6069946,6.3710022c2.8540039,5.2739868,4.492981,12.8080139,4.492981,23.8900146
			c0,29.5280151-5.8490601,39.901001-10.5800171,48.0650024c-1.6829834,2.9049988-3.039978,6.2799988-5.8579712,8.8169861
			c12.4420166-6.6329956,21.6719971-14.9419861,21.6719971-22.6390076v-29.1799927h3.2420044v29.1799927
			c0,5.5880127-1.3649902,8.1910095-1.3649902,8.1910095c-1.9559937,6.1820068-5.9110107,15.723999-8.3610229,19.5669861
			c11.4660034-6.197998,17.2919922-13.9589844,17.2919922-16.8370056v-40.1020203h3.2420044v40.6699829l-0.6259766,2.7869873
			c1.3920288,2.0859985,3.1430054,4.5639954,4.3800049,5.4039917c1.2399902-0.8410034,3.0469971-3.3150024,4.4379883-5.4039917
			l-0.6259766-2.7869873v-40.6699829h3.2420044v40.1019897c0,2.8779907,5.8250122,10.6390076,17.2929688,16.8370056
			c-2.4509888-3.8429871-6.4060059-13.3850098-8.3619995-19.5669861c0,0-1.3649902-2.6029968-1.3649902-8.1910095v-29.1799927
			h3.2420044v29.1799927c0,7.7059937,9.2640381,16.0020142,21.7290039,22.6390076
			c-2.8480225-2.5350037-4.2230225-5.8959961-5.9150391-8.8169861
			c-4.3270264-7.4660034-10.4099731-16.7489929-10.4099731-40.8970032c0-7.6929932,6.539978-13.0360107,6.539978-17.5759888
			c-0.0523682-5.730957-0.6427002-11.4443665-1.7629395-17.0650024l7.2810059,2.276001
			c-0.0129395-3.4970093-2.8709717-7.1210022-5.7459717-7.3380127c0.8389893-3.0010071,5.9730225-3.5829926,5.9730225-3.5829926
			c-2.4499512-4.5180054-7.848999-5.5180054-7.848999-5.5180054c0.7227783-1.6139832,1.8370361-3.0219116,3.2419434-4.095993
			c-2.5880127-0.878006-5.4870605-2.0119934-8.6439819-3.4129944c-12.0469971-5.3439941-21.0009766-11.147995-33.7319946-11.147995
			c-0.9689941,0-2.0900269-0.0460052-3.2990112-0.0570068H985.0789795z M855.9588623,273.3420105L855.9588623,273.3420105
			c-10.5380249,7.6849976-21.7169189,18.3800049-28.6110229,27.9289856
			c1.2269897,2.6359863,5.7449951,12.3429871,5.7449951,12.3429871s9.0040283-9.2659912,11.3190308-11.6610107v-2.9570007
			c0-2.7269897,1.7470093-5.6350098,3.4130249-7.7929993l3.2999878,1.1950073
			c-1.5839844,1.8640137-3.4699707,4.598999-3.4699707,7.053009v3.6400146l9.8400269,14.9030151l8.3620605-8.9859924
			l0.5679932-0.6260071l1.0810547-1.1380005v-1.651001c0.0723267-2.3977051,1.0236816-4.6851501,2.6729736-6.427002
			l3.3560181,1.1940002c-1.6650391,1.431488-2.6550293,3.4944763-2.7299805,5.6889954v2.8439941
			c3.3979492,4.8460083,10.4049683,14.0069885,15.9819336,15.927002v-20.7630005l-0.28302-7.053009
			c-7.6960449-2.6700134-30.5449829-23.6059875-30.5449829-23.6059875v-0.0559998H855.9588623z M1143.7219238,273.3420105h0.0009766
			v0.0559998c0,0-22.8499756,20.9370117-30.5450439,23.6059875l-0.2840576,7.053009v20.7630005
			c5.5778809-1.9200134,12.5830078-11.0809937,15.9830322-15.927002v-2.8439941
			c-0.074585-2.1948242-1.0650635-4.2580872-2.730957-5.6889954l3.3570557-1.1940002
			c1.6489258,1.7420959,2.6002197,4.0293884,2.6729736,6.427002v1.651001l1.0810547,1.1380005l0.5689697,0.6260071
			l8.3609619,8.9859924l9.8409424-14.9030151v-3.6400146c0-2.45401-1.8869629-5.1900024-3.4699707-7.053009l3.2989502-1.1950073
			c1.6660156,2.1579895,3.4129639,5.0660095,3.4129639,7.7929993v2.9570007
			c2.3149414,2.394989,11.3189697,11.6610107,11.3189697,11.6610107s4.5179443-9.7080078,5.7449951-12.3429871
			c-6.9119873-9.5310059-18.0970459-20.2609863-28.6130371-27.9290161L1143.7219238,273.3420105z M823.3649902,307.6419983
			c-1.710022,3.2219849-2.7299805,6.1549988-2.7299805,8.5889893v25.4259949l7.9639893-7.3940125v-17.1219788
			L823.3649902,307.6419983z M1176.3149414,307.6419373l-5.2330322,9.4989929v17.1220093l7.9630127,7.3940125v-25.4259644
			c0-2.4339905-1.0169678-5.3670044-2.7299805-8.5889893V307.6419373z M844.2420654,309.802948v0.0010071l0,0v33.105011
			l9.1569824-8.5899963v-10.5799866l-9.1569824-13.9360046V309.802948z M1155.4400635,309.803009L1155.4400635,309.803009
			l-9.1590576,13.9360046v10.5799866l9.1590576,8.5889893V309.803009z M840.9980469,312.3059998l-9.15802,9.6130066v12.3999939
			l9.15802,8.5320129V312.3059998z M1158.6820068,312.3049927v30.5450134l9.157959-8.5320129v-12.3999939l-9.157959-9.6119995
			V312.3049927z M869.0980225,343.5910034c6.0109863-3.2390137,11.5810547-10.5899963,13.7080078-13.5950012
			c-6.0040283-2.9450073-12.3289795-13.178009-13.7080078-15.4720154V343.5910034z M1116.8740234,329.9960022
			c2.1280518,3.0050049,7.6970215,10.3569946,13.7080078,13.5950012v-29.0670166
			C1129.2039795,316.8179932,1122.8790283,327.052002,1116.8740234,329.9960022z M856.6989746,324.8200073v9.4989929
			l9.1590576,8.5320129v-26.8480225L856.6989746,324.8200073z M1133.8260498,342.8510132l9.157959-8.5320129v-9.4989929
			l-9.157959-8.8169861V342.8510132z M820.6359863,352.0650024V363.95401l7.9639893,7.4519958v-26.7919922L820.6359863,352.0650024z
			 M1171.0830078,371.4060059l7.9630127-7.4519958v-11.8890076l-7.9630127-7.4509888V371.4060059z M831.8409424,344.6719971
			v26.6749878l5.2340088-4.8909912L841,362.8160095v-9.6130066l-3.9250488-3.6400146L831.8409424,344.6719971z
			 M853.3989258,344.6719971L853.3989258,344.6719971l-5.2329712,4.8909912l-3.9239502,3.697998v9.4989929l3.9239502,3.696991
			l5.2329712,4.8919983V344.6719971z M856.6989746,344.671936L856.6989746,344.671936v26.677002l5.1760254-4.8359985
			l3.9829712-3.7529907v-9.4989929l-9.1590576-8.5889893L856.6989746,344.671936z M878.256958,344.6719971L878.256958,344.6719971
			V344.67099c-2.8240967,3.743988-6,7.2879944-9.1590576,9.2149963v8.9299927l3.9260254,3.697998l5.2329712,4.8919983v-26.7339783
			H878.256958z M1121.4249268,344.671936v-0.0010071l0,0v26.7340088l5.2330322-4.8919983l3.9239502-3.696991v-8.9299927
			c-3.157959-1.9259949-6.3330078-5.4720154-9.1569824-9.2139893V344.671936z M1142.9829102,344.6719971h0.0009766
			l-9.157959,8.5889893v9.4989929l3.980957,3.7529907l5.1760254,4.8359985V344.6719971z M1146.282959,344.671936
			L1146.282959,344.671936v26.6759949l5.2330322-4.8909912l3.9250488-3.696991v-9.4989929l-3.9250488-3.697998l-5.2330322-4.8909912
			V344.671936z M1167.8409424,344.671936L1167.8409424,344.671936l-5.2340088,4.8919983l-3.9250488,3.6400146v9.6130066
			l3.9250488,3.6400146l5.2340088,4.8919983v-26.6769714V344.671936z M845.3787842,374.1929932L845.3787842,374.1929932v259.5510254
			c0,0,16.1760254-16.3590088,20.4769897-20.7050171c-0.4628906-7.1370239-1.1379395-18.0880127-1.1379395-18.0880127V374.25
			l-9.6699829,8.9869995l-9.6689453-9.0440063H845.3787842z M1154.3018799,374.1929932L1154.3018799,374.1929932v-0.0010071
			l-9.6700439,9.0450134l-9.6700439-8.9880066v220.7010193c0,0-0.6739502,10.9509888-1.1369629,18.0889893
			c4.3010254,4.3449707,20.4770508,20.7039795,20.4770508,20.7039795V374.1929932z M839.8620605,374.25l-9.6699829,8.9869995
			l-9.5559692-8.9299927v278.6060181c6.2698975-3.7800293,19.2260132-20.3220215,19.2260132-27.4169922V374.25H839.8620605z
			 M1159.8198242,374.25v251.2459717c0,7.0939941,12.9570313,23.6370239,19.2259521,27.4169922v-278.605957l-9.5560303,8.9299927
			L1159.8197021,374.25H1159.8198242z M919.5511475,571.630188l0.0019531-0.0020142l3.8669434,1.934021
			c0,0-5.4239502,13.2999878-10.0100098,15.4719849c0,0,5.2230225,0.4420166,8.3610229-1.6500244
			c0.5640259,3.0579834,1.309021,7.7369995,1.309021,7.7369995c2.493042-0.0809937,7.0510254-3.5280151,7.0510254-3.5280151
			c0.9659424,2.434021,2.6169434,9.3289795,2.6169434,9.3289795c3.8619385-2.5739746,15.7559814-16.4390259,15.7559814-16.4390259
			l5.4610596,3.5839844c0,0-19.7310181,15.8330078-23.8339844,24.117981
			c-0.2310791-1.3599854-0.4379883-2.473999-0.6810303-3.8109741c-3.6219482,4.802002-19.4589844,25.8239746-27.4169922,36.802002
			c-2.3790283,3.2810059-2.5360107,6.7849731-4.6070557,9.8410034c-4.0209961,5.9320068-8.3939819,8.8049927-12.9119873,12.9119873
			c-1.8050537,1.6400146-6.9289551,0.8140259-8.0780029-0.4559937
			c-1.4749756-1.6300049-11.4899902-14.1060181-11.4899902-14.1060181c-0.600769,0.6484985-0.9963989,1.4602051-1.1370239,2.3330078
			c0,0-3.8109741-4.9320068-3.8109741-8.53302c0-3.2750244,1.4089355-7.2509766,3.2989502-10.5230103
			c1.7980957-3.1129761,12.7460938-10.8070068,17.5760498-10.8070068c5.8249512,0,8.4979858,2.9210205,12.2869873-3.6409912
			c4.0489502-7.0150146,16.9659424-25.6119995,18.6569824-28.0429688c-1.7294922,0.0089111-3.4578857-0.0859375-5.1760254-0.2839966
			c3.6199951-3.3779907,12.9099731-22.2390137,12.9099731-22.2390137L919.5511475,571.630188z M1080.1269531,571.6300049
			L1080.1269531,571.6300049c0,0,9.2919922,18.8619995,12.9119873,22.2410278
			c-1.7177734,0.1980591-3.4459229,0.2929077-5.1750488,0.2839966c1.6899414,2.4310303,14.6070557,21.0280151,18.6569824,28.0429688
			c3.7879639,6.5620117,6.4610596,3.6400146,12.2860107,3.6400146c4.8310547,0,15.7790527,7.6939697,17.5760498,10.8079834
			c1.8890381,3.2719727,3.3000488,7.2469482,3.3000488,10.5219727c0,3.6010132-3.8110352,8.53302-3.8110352,8.53302
			c-0.1409912-0.8725586-0.5368652-1.68396-1.1379395-2.3319702c0,0-10.0150146,12.4749756-11.4899902,14.1060181
			c-1.1490479,1.2700195-6.2729492,2.0960083-8.0770264,0.4550171c-4.5179443-4.1069946-8.8919678-6.9799805-12.9119873-12.9119873
			c-2.0720215-3.0550537-2.2288818-6.559021-4.6080322-9.8400269c-7.9589844-10.9780273-23.7950439-32-27.4169922-36.802002
			c-0.2419434,1.3359985-0.4499512,2.4500122-0.6820068,3.8109741
			c-4.1030273-8.2869873-23.8330078-24.1199951-23.8330078-24.1199951l5.4599609-3.5830078
			c0,0,11.8950195,13.8660278,15.7559814,16.4400024c0,0,1.651001-6.8969727,2.6169434-9.3289795
			c0,0,4.55896,3.4459839,7.0529785,3.5269775c0,0,0.7459717-4.6790161,1.3079834-7.7360229
			c3.1390381,2.09198,8.3609619,1.6489868,8.3609619,1.6489868c-4.5830078-2.1710205-10.0100098-15.4710083-10.0100098-15.4710083
			l3.868042-1.934021L1080.1269531,571.6300049z M918.242981,592.9030762h-0.0009766v0.0009766
			c-0.6918335,0.3820801-1.4402466,0.6511841-2.21698,0.7969971c-1.2689819,1.9560547-14.4219971,22.2520142-22.5250244,34.7540283
			c-1.9669189,3.0339966-11.7290039,0.6719971-12.9699707,0.9099731
			c-5.1820068,0.9949951-12.5930176,6.4899902-13.3079834,8.4749756c-0.4139404,1.1469727,0.565979,3.0139771,1.6489868,3.0720215
			c1.8369751,0.0980225,3.5059814-2.4199829,9.4990234-4.2659912c5.5030518-1.6960449,9.6339722,0.1139526,14.3909912-3.4130249
			c-0.2459717,4.5930176-6.4849854,8.0930176-6.4849854,11.3179932c2.3966064,0.0001221,4.692688-0.9630737,6.3719482-2.6729736
			c0,0-0.34198,3.1199951-0.34198,5.7449951c0,2.6719971,3.1269531,4.1519775,3.1269531,4.1519775
			s1.7919922-7.3099976,3.9260254-10.1820068c8.585022-11.5560303,25.9320068-35.2319946,28.9530029-39.3610229
			c-0.611084-3.184021-1.0810547-5.5180054-1.0810547-5.5180054l-7.0529785,4.8359985
			c-2.0111084-2.2540283-1.9350586-8.6469727-1.9350586-8.6469727L918.242981,592.9030762z M1081.435791,592.9030762v-0.0020142
			c0,0,0.0770264,6.3939819-1.93396,8.6469727l-7.052002-4.8359985c0,0-0.4699707,2.335022-1.0810547,5.5180054
			c3.0200195,4.1300049,20.3669434,27.8059692,28.9520264,39.3619995
			c2.1330566,2.8720093,3.9250488,10.1829834,3.9250488,10.1829834s3.1280518-1.4810181,3.1280518-4.1530151
			c0-2.6240234-0.3409424-5.7440186-0.3409424-5.7440186c1.6789551,1.7097778,3.9747314,2.6729736,6.3709717,2.6729736
			c0-3.2249756-6.2390137-6.7260132-6.4849854-11.3190308c4.7580566,3.5269775,8.8879395,1.71698,14.3909912,3.4130249
			c5.993042,1.8469849,7.6619873,4.3629761,9.4990234,4.2659912c1.0839844-0.0579834,2.0629883-1.9250488,1.6500244-3.0720215
			c-0.7159424-1.9839478-8.1269531-7.4790039-13.3110352-8.4749756c-1.2399902-0.2379761-11.0019531,2.125-12.9680176-0.9099731
			c-8.1030273-12.5020142-21.2550049-32.7979736-22.5250244-34.7540283
			c-0.7773438-0.145752-1.5264893-0.4147949-2.2189941-0.7969971L1081.435791,592.9030762z M974.6129761,597.5670166h0.0019531
			l5.6879883,1.6500244c0,0-30.7420654,76.5540161-60.8070068,99.7130127
			c7.8457031,2.4273682,15.5548706,5.2758789,23.0939941,8.53302c10.03302-11.7509766,20.4099731-27.6019897,28.8389893-41.6950073
			c9.1030273-15.21698,16.5529785-41.9210205,16.5529785-41.9210205
			c4.2199707,10.2490234-4.7729492,61.7369995-22.9229736,94.3099976
			c15.0100098,7.8129883,28.3649902,16.2790527,34.7540283,23.2069702
			c6.3889771-6.9279785,19.7449951-15.3939819,34.7549438-23.2070313
			c-18.151001-32.5739746-27.1439819-84.0609741-22.9240112-94.3099976c0,0,7.4509888,26.7039795,16.5530396,41.9210205
			c8.4289551,14.0930176,18.8060303,29.9440308,28.8380127,41.6950073c7.5393066-3.2567139,15.2484131-6.1051636,23.0939941-8.53302
			c-30.0639648-23.1589966-60.8060303-99.7130127-60.8060303-99.7130127l5.6879883-1.6500244
			c0,0,38.5429688,88.5960083,72.7509766,102.2160034c0,0-14.881958,6.322998-33.1600342,15.8140259
			c-2.6669922,1.3850098-5.4150391,2.8709717-8.19104,4.3800049c-2.3010254-2.7709961-4.723999-5.8510132-7.1099854-9.0449829
			c-10.9289551-14.6219482-21.6159668-31.5689697-21.6159668-31.5689697
			c-0.7440186,4.4000244,5.026001,17.992981,14.7889404,34.7559814c1.9200439,3.2949829,3.9219971,6.7379761,6.1429443,10.2369995
			c-2.4770508,1.4140015-4.93396,2.8430176-7.394043,4.3239746c-18.1069946,10.8950195-35.1099854,23.4190063-41.4110107,34.9249878
			c-6.2999878-11.5059814-23.3040161-24.0300293-41.4089966-34.9249878
			c-2.460022-1.4810181-4.9180298-2.9099731-7.3950195-4.3239746c2.2219849-3.4990234,4.223999-6.9429932,6.1439819-10.2369995
			c9.7629395-16.7630005,15.53302-30.3560181,14.7889404-34.7559814c0,0-10.6870117,16.9470215-21.6160278,31.5689697
			c-2.3870239,3.1950073-4.8099365,6.2739868-7.1099854,9.0449829c-2.7780762-1.5089722-5.5250244-2.9949951-8.190979-4.3800049
			c-18.2789307-9.4910278-33.1619873-15.8140259-33.1619873-15.8140259
			c34.210022-13.6209717,72.7509766-102.2160034,72.7509766-102.2160034L974.6129761,597.5670166z M873.934021,640.1140137
			c-0.2676392-0.0322876-0.536499,0.0501709-0.7399902,0.2269897l-3.1850586,2.7869873
			c-0.4257813,0.4274292-0.4244385,1.1190796,0.0029907,1.5448608c0.3817749,0.3803101,0.9838867,0.425354,1.4180298,0.1061401
			l3.1850586-2.7869873c0.4225464-0.3932495,0.4484253-1.053833,0.0579834-1.4790039
			c-0.1887817-0.2193604-0.4519653-0.361084-0.7390137-0.3980103V640.1140137z M1125.7479248,640.1149292L1125.7479248,640.1149292
			c-0.2871094,0.0375366-0.550415,0.1791992-0.7399902,0.3980103c-0.3907471,0.4248657-0.3653564,1.0855103,0.0570068,1.4790039
			l3.1870117,2.7869873c0.4853516,0.3578491,1.1689453,0.2544556,1.5268555-0.230957
			c0.3200684-0.4342041,0.2751465-1.0371094-0.105835-1.4190674l-3.1850586-2.7869873
			C1126.2845459,640.164917,1126.015625,640.0824585,1125.7479248,640.1149292z M877.2889404,642.9019775L877.2889404,642.9019775
			c-0.5027466,0.0445557-0.9794312,0.2432861-1.3649902,0.5689697l-7.7360229,6.7119751
			c-1.0240479,1.0445557-1.0073853,2.7215576,0.0372314,3.7455444c0.930542,0.9122925,2.3863525,1.012146,3.4327393,0.2354736
			l7.7360229-6.7680054c1.0050659-0.9303589,1.0656128-2.4993286,0.1352539-3.5043335
			c-0.007019-0.0076294-0.0140991-0.0151367-0.0212402-0.022644
			C878.9629517,643.2136841,878.1399536,642.8550415,877.2889404,642.9019775z M1121.7669678,642.9019775v-0.0009766l0,0
			c-0.6263428,0.1290283-1.1887207,0.4707031-1.592041,0.96698c-0.9432373,0.9909058-0.904541,2.5587769,0.0863037,3.5019531
			c0.0089111,0.0084229,0.0178223,0.0167236,0.0267334,0.0250244l7.7359619,6.7680054
			c1.1741943,0.8720703,2.8328857,0.6271362,3.7049561-0.5469971c0.7770996-1.0462646,0.6773682-2.5023804-0.2349854-3.4329834
			l-7.7359619-6.7130127c-0.3863525-0.3248291-0.8631592-0.5230713-1.3659668-0.5679932
			C1122.1843262,642.8775024,1121.9746094,642.8775024,1121.7669678,642.9019775z M881.6698608,648.1349487h-0.0009766
			c-0.4855347,0.0452881-0.9438477,0.2446899-1.3079834,0.5689697l-7.7349854,6.7119751
			c-1.0158081,0.960083-1.0671387,2.5597534-0.1149902,3.5830078c0.8588867,1.083252,2.4333496,1.2651978,3.5166016,0.40625
			c0.003479-0.0027466,0.006958-0.0054932,0.010376-0.0082397l7.7919922-6.7689819
			c1.0047607-0.9290161,1.0661011-2.4966431,0.137085-3.5014038c-0.0076294-0.0082397-0.0153198-0.0164185-0.0230713-0.0245972
			c-0.5664673-0.6582642-1.4068604-1.015686-2.2739868-0.96698H881.6698608z M1117.3868408,648.1348267v-0.0009766
			c-0.6446533,0.1247559-1.2272949,0.4663696-1.651001,0.9680176c-0.9421387,0.9901733-0.9031982,2.5566406,0.0869141,3.4987793
			c0.0092773,0.0087891,0.0186768,0.0175781,0.0280762,0.0262451l7.7910156,6.7700195
			c1.0786133,0.864624,2.6539307,0.6912231,3.5185547-0.3873901c0.0028076-0.00354,0.0056152-0.0070801,0.0084229-0.0106201
			c0.9537354-1.0223389,0.9033203-2.6228638-0.1130371-3.5830078l-7.7359619-6.7119751
			c-0.3641357-0.3242188-0.8225098-0.5236206-1.3079834-0.5689697c-0.2076416-0.0250244-0.4173584-0.0250244-0.625,0V648.1348267z
			 M886.6178589,653.2539673c-0.4801636,0.0244141-0.93927,0.2044678-1.3079834,0.5130005l-7.7930298,6.7680054
			c-0.9914551,1.0630493-0.9334106,2.7285767,0.1296387,3.7200317c0.9208374,0.8588257,2.3209839,0.9451904,3.340332,0.2059937
			l7.7360229-6.7130127c1.0145874-0.9611816,1.0654907-2.5602417,0.1140137-3.5839844
			c-0.5512695-0.6411743-1.3762817-0.9794922-2.2189941-0.9099731V653.2539673z M1112.4379883,653.2539673
			c-0.6240234,0.0996094-1.1903076,0.4230957-1.5930176,0.9099731c-0.9527588,1.0230713-0.9023438,2.6229858,0.1130371,3.5839844
			l7.7370605,6.7130127c1.177124,0.8530273,2.822876,0.590271,3.6759033-0.586853
			c0.7385254-1.019104,0.6522217-2.4185181-0.2059326-3.3391724l-7.7950439-6.7680054
			c-0.3682861-0.3086548-0.8271484-0.4887695-1.3070068-0.5130005c-0.2077637-0.0220337-0.4172363-0.0220337-0.625,0V653.2539673z"
			/>
		<g id="g2704">
			<polygon id="rect2290" style="&st3;" points="889.9780273,677.4199829 907.9799805,687.2349854 912.3569946,667.2039795 
				894.3549805,657.3889771 			"/>
			<path id="rect2273" style="&st3;" d="M810.5648193,465.2600098L810.5648193,465.2600098l74.5720215,163.4219971h-7.7930298
				l-73.2628784-160.4630127l6.4840088-2.9590149L810.5648193,465.2600098z M896.968811,654.5050049L896.968811,654.5050049
				l4.4359741,9.7839966l-6.427002,2.9580078l-3.2989502-7.2810059l5.2889404-5.4609985H896.968811z"/>
			<polygon id="rect2288" style="&st4;" points="894.2199707,675.4819946 905.3870239,681.5700073 908.1010132,669.1450195 
				896.9349976,663.0570068 			"/>
			<path id="path2280" style="&st3;" d="M833.3249512,591.7739868v0.0020142c0,0,13.2908936,0.8330078,23.1739502,4.276001
				c6.100769,2.237854,11.5576782,5.9415894,15.8900146,10.7849731l2.0009766,10.5830078
				c0,0-4.8499756,4.9860229-14.8389893,4.2979736c-11.7789917-0.8140259-25.6660156-13.2199707-25.6660156-13.2199707
				s7.8770752-2.8900146,10.3010254-2.2280273c-4.6899414-1.7490234-10.8610229-14.4959717-10.8610229-14.4959717H833.3249512z"/>
			<path id="path2282" style="&st3;" d="M879.8449707,568.9450684L879.8449707,568.9450684
				c0,0,7.4440918,10.882019,5.7840576,19.6430054c1-1.2960205,8.8610229-4.2230225,8.8610229-4.2230225
				s1.5479736,10.6560059-2.6729736,18.5529785s-14.1450195,13.1779785-14.1450195,13.1779785l-7.1590576-13.3560181
				c0,0-3.8540039-9.6030273-1.5209961-18.0529785c2.3319702-8.447998,10.8530273-15.7420044,10.8530273-15.7420044
				L879.8449707,568.9450684z"/>
			<path id="path2284" style="&st3;" d="M852.4650269,565.5269775h0.0009766l-4.8239746-10.1779785
				c0,0-6.427002-8.0750122-13.7989502-10.8560181c-7.3720703-2.7800293-15.6850586-0.2670288-15.6850586-0.2670288
				s5.8510132,10.1060181,9.8850098,11.5809937c-3.6669922-0.6699829-11.0980225,4.3590088-11.0980225,4.3590088
				s7.4539795,7.5280151,16.4180298,8.0690308c9.4110107,0.5670166,19.1020508-2.7080078,19.1020508-2.7080078H852.4650269z"/>
			<path id="path2286" style="&st3;" d="M855.7949829,518.1989746h-0.0009766c0,0-8.065979,5.6740112-11.5109863,11.9769897
				c-3.4450684,6.3039551-1.8010254,14.2639771-1.8010254,14.2639771l11.0479736,21.4849854
				c0,0,10.0161133-3.8210449,13.3049927-13.8560181c3.289917-10.0349731-0.1500244-26.2839966-0.1500244-26.2839966
				s-5.6890259,3.6149902-7.1929932,5.9379883c1.1500244-3.4879761-3.6970215-13.5239868-3.6970215-13.5239868
				L855.7949829,518.1989746z"/>
			<path id="path2293" style="&st3;" d="M792.7348633,491.6340027h0.0009766v-0.0010071c0,0,3.6320801,6.6990051,7.1230469,8.243988
				c-2.3969727-0.894989-8.6920166,1.4920044-8.6920166,1.4920044s6.6190186,10.8180237,15.6279907,14.0890198
				c9.0089722,3.2700195,20.4090576-1.0059814,20.4090576-1.0059814l-3.9450073-10.5780029
				c0,0-2.4560547-6.0440063-10.46698-9.3699951c-9.5819702-3.9700012-20.0570068-2.8699951-20.0570068-2.8699951
				L792.7348633,491.6340027z"/>
			<path id="path2295" style="&st3;" d="M825.6850586,471.9940491v-0.0010071c0,0-5.4890137,4.5390015-6.5059814,10.9289856
				c-1.0180664,6.3900146,2.434021,14.6289978,2.434021,14.6289978l10.5908813,20.1019897
				c0,0,8.4919434-5.9989929,9.7869873-16.1409912c1.2949219-10.1400146-4.6070557-24.4240112-4.6070557-24.4240112
				s-5.7379761,3.9899902-6.9639893,7.6000061c-0.1379395-6.7900085-4.7349854-12.6940002-4.7349854-12.6940002
				L825.6850586,471.9940491z"/>
			<path id="path2297" style="&st3;" d="M789.4049072,433.5509949L789.4049072,433.5509949
				c0,0,12.6739502,7.0369873,14.7600098,12.1849976c0.2849731-4.9930115,3.5089722-11.6820068,3.5089722-11.6820068
				s8.177002,11.0350037,8.6760254,21.3299866c0.5,10.2950134-6.6779785,19.8500061-6.6779785,19.8500061
				s-10.9160156,1.269989-17.9949951-4.1650085c-7.0789795-5.4339905-10.0410156-17.3460083-10.0410156-17.3460083
				s8.3220215,0.3129883,13.8270264,3.9450073c0,0-1.8380127-1.2340088-4.7249756-6.8619995
				c-3.2320557-6.3070068-1.3330078-17.2550049-1.3330078-17.2550049L789.4049072,433.5509949z"/>
			<path id="path2299" style="&st7;" d="M792.625,440.2160034c0,0,5.9110107,1.8120117,8.559021,6.3519897
				c2.6469727,4.5379944,2.3640137,12.5369873,2.3640137,12.5369873s-5.9119873-1.8099976-8.559021-6.3500061
				C792.342041,448.21698,792.625,440.2159729,792.625,440.2159729V440.2160034z"/>
			<path id="path2301" style="&st7;" d="M787.085022,458.3080139L787.085022,458.3080139
				c0,0,3.8989868,7.2829895,7.9119873,10.3599854c2.480896,1.8471375,5.5291748,2.7696228,8.617981,2.6080017
				c0,0-1.5540771-6.4079895-5.565979-9.4840088c-4.0129395-3.0759888-10.9639893-3.4840088-10.9639893-3.4840088V458.3080139z"/>
			<path id="path2304" style="&st7;" d="M813.1989746,452.7520142c0.2659912,5.7149963-2.7490234,12.5750122-2.7490234,12.5750122
				s-3.335022-6.4370117-3.6010132-12.1520081c-0.0686035-3.7718201,0.6273804-7.5184631,2.0460205-11.0140076
				C809.7030029,443.7789917,812.934021,447.0369873,813.1989746,452.7520142z"/>
			<path id="path2306" style="&st7;" d="M797.1948242,493.6640015L797.1948242,493.6640015v-0.0020142
				c0,0,7.3319702-0.2070007,12.5860596,2.3909912c3.5304565,1.92453,6.6439209,4.5305176,9.1599731,7.6669922
				c0,0-7.8259277-0.0960083-13.0800171-2.6940002c-3.3890381-1.7955017-6.3463135-4.3077393-8.6660156-7.3619995V493.6640015z"/>
			<path id="path2308" style="&st7;" d="M798.8948975,504.7390137L798.8948975,504.7390137
				c0,0,8.2919922,0.1470032,12.8790283,2.2550049c3.1576538,1.6494446,5.9436646,3.9287109,8.1859741,6.6970215
				c0,0-9.3829346,0.1729736-13.9710083-1.9339905c-4.5859375-2.1059875-7.0939941-7.0180054-7.0939941-7.0180054V504.7390137z"/>
			<path id="path2310" style="&st7;" d="M825.3051758,478.5329895L825.3051758,478.5329895
				c1.824646,2.6031189,2.9107056,5.6515503,3.1430054,8.821991c0.2719727,5.0490112-2.0579834,11.3739929-2.0579834,11.3739929
				s-3.3140869-5.5169983-3.5860596-10.5669861c-0.0327759-3.3743896,0.8302612-6.697052,2.5009766-9.6289978H825.3051758z"/>
			<path id="path2312" style="&st7;" d="M835.5150146,485.0109253v0.0020142c0,0,4.3660889,7.3349915,3.6850586,13.881012
				c-0.6820068,6.5450134-6.4119873,12.2990112-6.4119873,12.2990112s-3.3790283-6.7250061-2.6970215-13.269989
				c0.6809082-6.54599,5.4239502-12.9119873,5.4239502-12.9119873V485.0109253z"/>
			<path id="path2320" style="&st7;" d="M822.4359131,545.4569702c4.4226685-0.5723877,8.914856,0.2141113,12.8800049,2.2550049
				c6.0531006,3.3829956,11.8830566,12.0839844,11.8830566,12.0839844s-5.4169922-3.6279907-9.4890137-4.5109863
				c-2.4285278-0.5310669-4.9489746-0.4721069-7.3499756,0.1719971c-1.9544067-1.536499-3.7539673-3.260376-5.3729858-5.1469727
				c-1.1622925-1.4335938-2.0296021-3.0829468-2.552002-4.8530273H822.4359131z"/>
			<path id="path2322" style="&st7;" d="M821.8348389,560.4110107v-0.0009766l-0.0020142,0.0020142
				c0,0,4.7520142,4.5960083,10.9689941,5.4279785c6.2150269,0.8319702,14.6160278-2.0750122,14.6160278-2.0750122
				s-5.6040039-4.9130249-11.8199463-5.7459717c-6.2150269-0.8319702-13.7629395,2.3920288-13.7629395,2.3920288
				L821.8348389,560.4110107z"/>
			<path id="path2324" style="&st7;" d="M856.4420166,532.8120117c0.1514893,1.9165649-0.0419312,3.8447266-0.5710449,5.6929932
				c-1.2843018,1.6489258-2.3635254,3.4477539-3.2139893,5.3569946c-0.6432495,2.1121216-0.8920898,4.324707-0.7340088,6.5269775
				c0,0-5.9719238-5.7189941-5.4130249-11.8549805c0.5599365-6.1359863,7.2349854-13.2069702,7.2349854-13.2069702
				C855.0220337,527.6691284,855.9317017,530.1936035,856.4420166,532.8120117z"/>
			<path id="path2326" style="&st7;" d="M863.3140259,533.5139771c0,0,2.3950195,9.1199951,0.7320557,15.9370117
				c-1.6630249,6.815979-7.3850098,11.3289795-7.3850098,11.3289795s-2.9630127-7.2680054-1.2999878-14.085022
				c1.6630249-6.815979,7.9539795-13.1810303,7.9539795-13.1810303L863.3140259,533.5139771z"/>
			<path id="path2328" style="&st7;" d="M879.0649414,574.6040039L879.0649414,574.6040039
				c0,0-6.6820068,6.7650146-7.5939941,13.1939697c-0.9110107,6.4299927,5.0050049,15.2249756,5.0050049,15.2249756
				s0.25-4.0050049,1.9470215-6.1950073c1.3209229-1.7030029,4.2670288-4.5999756,4.2670288-4.5999756
				s0.6719971-1.7219849-0.052002-6.6970215c-0.7304077-3.7768555-1.9307861-7.4473877-3.572998-10.9260254L879.0649414,574.6040039
				z"/>
			<path id="path2330" style="&st7;" d="M891.5449829,588.3660278v-0.0009766h-0.0009766
				c0,0-0.6160889,9.7870483-3.6229858,14.9180298c-1.807373,3.0464478-4.8989868,5.1086426-8.4060059,5.6069946
				c-0.8577881-3.5206909-0.3399048-7.236084,1.447998-10.3880005c3.0070801-5.132019,10.5819702-10.1359863,10.5819702-10.1359863
				V588.3660278z"/>
			<path id="path2333" style="&st7;" d="M841.7650146,609.4979248v-0.0009766l0,0c0,0,5.8430176,6.7940063,12.5170288,8.434021
				c6.6729736,1.6400146,14.177002-1.8729858,14.177002-1.8729858s-2.4290771-3.5770264-9.1030273-5.21698
				c-6.6729736-1.6409912-17.5910034-1.3430176-17.5910034-1.3430176V609.4979248z"/>
			<path id="path2335" style="&st7;" d="M839.9160156,596.5460205h-0.0009766c0,0,9.5170288-0.3649902,17.1149902,2.6209717
				c7.5960083,2.9869995,13.1160278,9.7520142,13.1160278,9.7520142s-10.1610107,1.8499756-18.9370117-1.9660034
				c-6.3679199-2.7700195-11.2939453-10.4069824-11.2939453-10.4069824H839.9160156z"/>
			<path id="path2350" style="&st3;" d="M874.9549561,616.9719238h-0.0009766c0,0,6.4239502,0.2150269,8.7880249-1.0089722
				c1.2440186-0.6430054,2.2080078-1.8120117,3.6729736-2.1010132c2.3880615-0.4710083,4.8660278,0.1079712,6.0830078,2.7730103
				c1.2090454,2.6871948,0.0299072,5.8468628-2.6439819,7.085022c-2.2076416,1.0101318-4.815918,0.4625854-6.4310303-1.3499756
				c-1.6729736-2.0570068-2.6448975-1.40802-9.1739502-1.4680176l-0.2939453-3.9299927L874.9549561,616.9719238z"/>
			<path id="path2348" style="&st4;" d="M891.295166,617.6589355L891.295166,617.6589355v-0.0020142l0.0179443,0.0369873
				c-0.0050049-0.0089722-0.0139771-0.0310059-0.0189819-0.039978c-0.6620483-1.4558105-2.3789673-2.0992432-3.8347778-1.4371338
				c-1.4557495,0.6620483-2.0991821,2.3789063-1.4371338,3.8347168c0.0012817,0.0028076,0.0025635,0.0056152,0.0038452,0.0084229
				l-0.0159912-0.0349731c0.0050049,0.0089722,0.013916,0.0310059,0.0179443,0.039978
				c0.6599121,1.4569092,2.3759766,2.1030273,3.8328857,1.4431152s2.1030273-2.3759766,1.4431152-3.8328857
				c-0.0023193-0.005127-0.0046387-0.0101929-0.006958-0.0152588l-0.0020142-0.0009766H891.295166z"/>
			<path id="path2357" style="&st3;" d="M874.3950195,613.9650269h-0.0009766c0,0-3.2189941,5.5609741-5.5089722,6.9199829
				c-1.2041016,0.7139893-2.7050781,0.9119873-3.7269897,2.0029907c-1.6640625,1.776001-2.4860229,4.1829834-0.8690186,6.6270142
				c1.6389771,2.4487305,4.9434814,3.1221313,7.4099731,1.5100098c2.0263672-1.3372803,2.9431763-3.84021,2.2600098-6.1699829
				c-0.8579102-2.5100098,0.2060547-2.9899902,3.6129761-8.5609741l-3.177002-2.3289795V613.9650269z"/>
			<path id="path2359" style="&st4;" d="M866.3250732,628.1859131v-0.0009766h0.0009766l0.0229492,0.0349731
				c-0.007019-0.0089722-0.0189819-0.0289917-0.026001-0.0390015c-0.8806152-1.3348999-0.5123901-3.1309814,0.8225098-4.0115967
				c1.3330078-0.8793945,3.1263428-0.5136108,4.0084229,0.817627l-0.0209961-0.0319824
				c0.0061035,0.0100098,0.0170898,0.0280151,0.0239868,0.0380249c0.8825684,1.3340454,0.5165405,3.1309814-0.8175049,4.0135498
				c-1.3341064,0.8825073-3.1309814,0.5164795-4.0135498-0.8175659l-0.0009766-0.0029907L866.3250732,628.1859131z"/>
			<path id="path2361" style="&st3;" d="M852.2849121,567.2969971h-0.0009766c0,0,6.4229736,0.2150269,8.7880249-1.0079956
				c1.242981-0.6430054,2.2059937-1.8120117,3.6719971-2.1010132c2.3880615-0.4710083,4.8649902,0.1069946,6.0819702,2.7730103
				c1.2109985,2.6865845,0.0317993,5.847229-2.6430054,7.0839844c-2.2073364,1.0098877-4.8151855,0.4623413-6.4299927-1.3499756
				c-1.6739502-2.0560303-2.6448975-1.40802-9.1739502-1.4680176l-0.2939453-3.9299927H852.2849121z"/>
			<path id="path2363" style="&st4;" d="M868.6149902,567.9829102L868.6149902,567.9829102l0.0179443,0.0380249
				c-0.0050049-0.0100098-0.013916-0.0310059-0.0179443-0.0410156c-0.6641235-1.4552612-2.3822632-2.0966187-3.8375244-1.4324951
				s-2.0966187,2.3822632-1.4324951,3.8375244l-0.0150146-0.0349731l0.0180054,0.0410156
				c0.6641235,1.4547119,2.3818359,2.0956421,3.8365479,1.4315186s2.0956421-2.3818359,1.4315186-3.8365479l-0.0009766-0.0029907
				L868.6149902,567.9829102z"/>
			<path id="path2365" style="&st3;" d="M853.6051025,568.6920776L853.6051025,568.6920776
				c0,0-4.0440674,4.9949951-6.5189819,5.9799805c-1.2990723,0.5170288-2.8140869,0.4810181-3.992981,1.3980103
				c-1.9200439,1.4959717-3.1060791,3.7470093-1.8889771,6.4119873c1.2380371,2.6740112,4.3978271,3.8532104,7.085022,2.6439819
				c2.2103271-1.0056152,3.5056763-3.3358765,3.1929932-5.7440186c-0.4580078-2.6119995,0.6690063-2.9210205,4.901001-7.8930054
				l-2.7780151-2.7969971L853.6051025,568.6920776z"/>
			<path id="path2367" style="&st4;" d="M843.4249878,581.4869385L843.4249878,581.4869385l0.0179443,0.0380249
				l-0.0200195-0.0419922c-0.6564941-1.4584961-0.0063477-3.1729736,1.4520874-3.8294678
				c1.4476929-0.6516724,3.1500854-0.0162964,3.8168945,1.4244385l-0.0159912-0.0339966
				c0.0050049,0.0100098,0.0150146,0.0310059,0.0189819,0.0410156c0.6641235,1.4547119,0.0231934,3.1724243-1.4315186,3.8365479
				s-3.1724243,0.0231934-3.8365479-1.4315186l-0.0020142-0.0029907L843.4249878,581.4869385z"/>
			<path id="path2370" style="&st3;" d="M830.3049927,520.802002c0,0,6.4229736,0.21698,8.7869873-1.0079956
				c1.2440186-0.6420288,2.2069702-1.8109741,3.6729736-2.1010132c2.3889771-0.4710083,4.8649902,0.1069946,6.0839844,2.7730103
				c1.2088013,2.6871948,0.0303345,5.8467407-2.6429443,7.0859985c-2.2078247,1.0096436-4.8158569,0.4626465-6.4320068-1.348999
				c-1.6739502-2.0579834-2.6448975-1.4089966-9.1739502-1.4689941l-0.2950439-3.9299927V520.802002z"/>
			<path id="path2374" style="&st4;" d="M846.6451416,521.4899902l-0.0009766-0.0009766l0.0180054,0.0369873l-0.0200195-0.0410156
				c-0.6641235-1.4547119-2.3818359-2.0956421-3.8365479-1.4315186s-2.0956421,2.3818359-1.4315186,3.8365479l-0.0150146-0.0339966
				c0.0039063,0.0109863,0.013916,0.0310059,0.0179443,0.039978c0.6717529,1.4514771,2.3930054,2.0836182,3.8445435,1.4118652
				c1.4407349-0.6668091,2.0760498-2.3692017,1.4244385-3.8168945l-0.0009766-0.0009766H846.6451416z"/>
			<path id="path2376" style="&st3;" d="M832.1151123,519.9769287c0,0-4.0440674,4.9920044-6.5189819,5.9780273
				c-1.2999878,0.5189819-2.8150635,0.4799805-3.992981,1.3989868c-1.9200439,1.4949951-3.1060181,3.7459717-1.8900146,6.4130249
				c1.2391357,2.6728516,4.3980713,3.8512573,7.085022,2.6430054c2.2094116-1.0060425,3.5044556-3.3353271,3.1929932-5.742981
				c-0.4569702-2.6119995,0.6690674-2.9219971,4.9000244-7.8939819l-2.776001-2.7960205L832.1151123,519.9769287z"/>
			<path id="path2378" style="&st4;" d="M821.9348145,532.7709961l0.0170288,0.0369873l-0.0179443-0.0410156
				c-0.6641235-1.4547119-0.0231934-3.1724243,1.4315186-3.8365479s3.1724243-0.0231934,3.8365479,1.4315186l-0.0159912-0.0349731
				l0.0189819,0.0410156c0.6641235,1.4547119,0.0231934,3.1724243-1.4315186,3.8365479s-3.1724243,0.0231934-3.8365479-1.4315186
				l0,0l-0.0019531-0.0020142H821.9348145z"/>
			<path id="path2380" style="&st3;" d="M806.8939819,471.7139893v-0.0020142c0,0,6.4239502,0.2149963,8.7880249-1.0079956
				c1.2440186-0.6419983,2.2080078-1.8110046,3.6729736-2.1010132c2.3880615-0.4719849,4.8660278,0.1069946,6.0830078,2.7730103
				c1.2088013,2.6874695,0.0298462,5.8472595-2.6439819,7.0859985c-2.2081909,1.0085144-4.8158569,0.4602966-6.4310303-1.3519897
				c-1.6729736-2.0559998-2.6448975-1.4070129-9.1739502-1.4679871l-0.2939453-3.928009H806.8939819z"/>
			<path id="path2382" style="&st4;" d="M823.2348633,472.3999939l0.0170288,0.0379944l-0.0179443-0.0409851
				c-0.6723633-1.4512329-2.3938599-2.0826721-3.8450928-1.4103088c-1.4396362,0.6669617-2.074585,2.3681946-1.4238892,3.8153076
				l-0.0159912-0.0350037l0.0189819,0.0419922c0.6707153,1.4521179,2.3916016,2.0855408,3.843689,1.4148254
				c1.4432373-0.6665955,2.0793457-2.3718872,1.425293-3.8208313l-0.0020142-0.0029907H823.2348633z"/>
			<path id="path2384" style="&st3;" d="M808.704834,470.8869934L808.704834,470.8869934
				c0,0-4.0449219,4.9930115-6.5179443,5.9779968c-1.2999878,0.5190125-2.8150635,0.4830017-3.9940186,1.3999939
				c-1.9189453,1.493988-3.1060181,3.7470093-1.8879395,6.4119873c1.2373047,2.6742249,4.3970947,3.8535767,7.0839844,2.6440125
				c2.2097168-1.0063171,3.5047607-3.3360291,3.1929932-5.743988c-0.4589844-2.6119995,0.6680298-2.9219971,4.9000244-7.8940125
				l-2.7769775-2.79599H808.704834z"/>
			<path id="path2386" style="&st4;" d="M798.5250244,483.6799927l0.0170288,0.0379944
				c-0.0050049-0.0100098-0.0130615-0.0310059-0.0189819-0.0409851c-0.6558838-1.4587402-0.0050659-3.1730042,1.4536743-3.8288879
				c1.4470825-0.6506958,3.1483154-0.0157776,3.8153076,1.4238892l-0.0159912-0.0339966l0.0189819,0.0409851
				c0.6638184,1.4547424,0.0227051,3.1721802-1.4320679,3.8360291c-1.4547119,0.6638489-3.1721802,0.0227051-3.8359985-1.4320374
				l-0.0020142-0.0029907H798.5250244z"/>
			<path id="path2340" style="&st4;" d="M848.1350098,555.6550903h-0.0009766v-0.0020142
				c2.1929932-0.9119873-5.5900269-14.4400024-8.2650146-20.2990112c-2.6760254-5.8610229-4.8549805-10.4959717-6.5100098-9.7410278
				c-1.5079346,0.6890259,3.8010254,9.5159912,6.4160156,15.2440186c2.5490112,5.5819702,6.0200195,15.7699585,8.3599854,14.7979736
				V555.6550903z"/>
			<path id="path2342" style="&st4;" d="M819.2440186,489.2059937c-2.1400146-4.6879883-4.585022-9.7049866-6.2399902-8.9500122
				c-1.5080566,0.6889954,1.0380249,4.7340088,3.6530151,10.4609985c2.5479736,5.5820007,5.1079712,12.2539978,7.447998,11.2799988
				C826.2969971,501.0840149,821.3179932,493.7470093,819.2440186,489.2059937z"/>
			<path id="path2337" style="&st4;" d="M879.704834,623.6559448h0.0020142
				c1.375-0.3690186-6.2679443-15.8059692-12.7509766-30.007019c-6.4849854-14.2009888-11.7319336-27.6140137-13.3879395-26.8579712
				c-1.5079346,0.6870117,3.3190918,12.1750488,9.8000488,26.3740234
				c6.4829712,14.2000122,14.5009766,30.9829712,16.3369751,30.4910278L879.704834,623.6559448z"/>
		</g>
		<polygon id="path2754" style="&st8;" points="1105.5300293,463.2359924 1105.5300293,548.2600098 1095.651001,563.4290161 
			1043.44104,588.1259766 998.9849854,612.4699707 992.2849731,605.414978 940.7750244,581.776001 900.5549927,559.5499878 
			894.2050171,549.3189697 893.8449707,462.8829956 		"/>
		<path id="path2355" style="&st6;" d="M891.3951416,358.8349915h0.0019531l36.5739746,0.2829895
			c0,0,41.8649902,0.4150085,71.8989868,0.7399902c30.0409546-0.3250122,71.8410034-0.7399902,71.8410034-0.7399902
			l36.5749512-0.2829895l-2.6739502,7.7929993l0.6259766,99.2579956l-3.6970215,4.0950012l-30.5460205,3.6400146
			l-33.0479736-4.8349915c0,0-19.190979,2.9630127-32.4229736,5.0069885
			c-0.0139771,0.0669861-0.3980103,1.9899902-0.3980103,1.9899902s-4.7709961-0.7369995-6.257019-0.9670105
			c-1.5130005,0.2349854-6.3140259,0.9670105-6.3140259,0.9670105s-0.3839722-1.9230042-0.3980103-1.9899902
			c-13.2329712-2.0440063-32.4240112-5.0069885-32.4240112-5.0069885l-33.0479736,4.8349915l-30.5449829-3.6400146
			l-3.697998-4.0950012l0.6259766-99.2579956l-2.6729736-7.7929993H891.3951416z"/>
		<polygon id="path2756" style="&st4;" points="919.4550171,478.9339905 929.4349976,486.4169922 940.9050293,476.4379883 
			953.8850098,468.9549866 937.914978,462.4679871 929.9349976,453.9859924 918.4550171,462.9670105 901.9949951,469.4530029 		"/>
		<polygon id="path2758" style="&st4;" points="1080.6099854,462.9670105 1098.0710449,469.9530029 1081.1099854,478.4339905 
			1070.6309814,486.9159851 1061.1500244,478.4339905 1046.1800537,468.9549866 1062.1500244,462.4679871 1069.6300049,454.4859924 
					"/>
		<polygon id="path2760" style="&st4;" points="1005.2700195,387.1300049 1019.2410278,380.144989 1013.2509766,394.6130066 
			1026.7199707,400.6010132 1012.75,405.5899963 1018.7410278,419.0620117 1005.2700195,413.072998 999.7849731,428.0409851 
			994.2949829,413.072998 980.8250122,420.0589905 986.8049927,405.5899963 972.835022,400.6010132 986.8049927,395.1130066 
			980.3250122,380.6419983 994.7949829,387.6289978 999.7849731,372.6600037 		"/>
		<polygon id="path2762" style="&st4;" points="1056.6610107,385.6329956 1067.6409912,399.6019897 1072.1309814,416.5660095 
			1064.6400146,444.5069885 1048.6810303,458.4769897 1034.2110596,463.4649963 1043.6899414,481.428009 1034.7110596,484.42099 
			1017.2410278,495.3980103 1013.7509766,524.3359985 1016.25,553.2750244 1028.2199707,562.7529907 1031.2099609,572.7329712 
			1019.7399902,579.2180176 1006.2700195,588.697998 990.8049927,588.1989746 980.3250122,579.7180176 968.3449707,572.2340088 
			968.8449707,565.2490234 979.8250122,557.7650146 984.8150024,549.2819824 985.8150024,512.8599854 981.3250122,495.8959961 
			972.835022,487.4140015 956.375,482.4259949 965.8549805,464.9630127 960.3649902,463.4649963 940.4050293,450.4930115 
			929.4349976,432.0329895 929.4349976,404.5929871 944.8950195,383.6369934 962.8649902,369.1690063 948.3950195,409.0830078 
			950.8850098,431.5350037 962.8649902,444.0079956 973.335022,445.5039978 979.3250122,449.4960022 988.8049927,443.0100098 
			1000.2800293,449.9949951 1010.7609863,443.5079956 1020.2399902,448.4970093 1028.2199707,446.0039978 1042.6899414,440.0150146 
			1050.6700439,426.04599 1049.6700439,406.5870056 1042.6899414,386.131012 1038.2010498,370.1659851 		"/>
		<polygon id="path2764" style="&st4;" points="963.6049805,501.8840027 970.3449707,508.6199951 976.8250122,502.1329956 
			969.8449707,495.1480103 		"/>
		<polygon id="path2766" style="&st4;" points="1036.7010498,501.8840027 1029.2209473,508.3699951 1022.9810181,501.6350098 
			1029.9699707,494.3989868 		"/>
		<polygon id="path2768" style="&st4;" points="1030.2209473,531.0709839 1031.2099609,557.2650146 1024.2299805,554.2719727 
			1018.9899902,543.0460205 1019.2410278,523.0889893 1022.4810181,515.8549805 1034.9599609,512.8599854 		"/>
		<polygon id="path2770" style="&st4;" points="977.3250122,515.3549805 980.5750122,525.5839844 979.8250122,542.5460205 
			975.585022,552.276001 969.3449707,556.7670288 969.3449707,535.3120117 964.8549805,513.1099854 		"/>
		<polygon id="path2772" style="&st4;" points="1066.3909912,533.815979 1055.4100342,548.78302 1055.6610107,561.7559814 
			1053.1710205,561.0059814 1042.94104,549.0339966 1043.6899414,535.3120117 1050.9210205,526.8300171 1064.8909912,523.8369751 
			1079.3599854,530.8220215 		"/>
		<polygon id="path2774" style="&st4;" points="944.8950195,523.5880127 951.3850098,522.5889893 958.125,530.322998 
			956.125,538.5560303 951.1350098,541.2979736 954.625,544.0440063 957.875,550.7789917 953.125,558.0150146 
			945.8950195,559.5100098 939.914978,555.5189819 936.164978,562.5050049 929.1849976,564.2509766 922.9450073,560.7579956 
			920.9550171,554.5209961 923.4450073,548.2849731 920.4550171,548.5349731 915.2150269,546.7869873 911.4749756,542.2979736 
			912.2150269,535.3120117 917.7050171,530.0739746 924.4450073,530.8220215 922.6950073,524.8339844 925.9349976,518.098999 
			932.4249878,515.6040039 940.1550293,520.0960083 941.6550293,526.0819702 		"/>
		<path id="path2169" style="&st3;" d="M963.4050293,364.4100037L963.4050293,364.4100037
			c3.5969849,12.644989-12.2860107,30.1109924-12.2860107,50.7950134c0,26.7630005,19.7370605,28.0429993,19.7370605,28.0429993
			c4.6190186,0,6.4910278,3.2990112,8.3060303,3.2990112c3.8859863-0.4060059,5.7160034-5.3479919,9.5560303-5.3479919
			c3.6090088,0,6.322998,5.5750122,11.09198,5.5750122s7.539978-5.5750122,11.1480103-5.5750122
			c3.8409424,0,5.6699829,4.9419861,9.5560303,5.3479919c1.8150024,0,3.6860352-3.2990112,8.3050537-3.2990112
			c0,0,19.7380371-1.2799988,19.7380371-28.0429993c0-20.6839905-15.881958-38.1499939-12.2869873-50.7949829
			c1.0450439,7.3080139,37.8270264,22.5010071,37.8270264,53.1270142c0,39.2120056-36.6879883,48.4630127-36.6879883,48.4630127
			l1.5350342,2.7869873l8.9310303,16.2680054c-0.0009766,0-15.1610107,0.7590027-23.2080078,7.6220093
			c-9.7030029,8.276001-8.7600098,25.8099976-8.7600098,38.565979c0,10.0490112,1.2700195,20.6539917,6.4279785,25.0269775
			c6.9229736,5.8709717,11.6040039,6.3049927,11.6040039,13.1970215c0,5.7490234-4.4179688,6.9009399-11.6040039,10.6939697
			c-9.210022,4.8599854-8.8359985,11.3759766-22.526001,11.3759766c-13.6879883,0-13.2579956-6.5159912-22.46698-11.3759766
			c-7.1859741-3.7930298-11.6049805-4.9450073-11.6049805-10.6939697c0-6.8920288,4.6810303-7.3260498,11.6049805-13.1970215
			c5.1569824-4.3719482,6.427002-14.9769897,6.427002-25.0269775c0-12.7559814,0.9439697-30.2900085-8.7589722-38.5660095
			c-8.0479736-6.8640137-23.2080078-7.6220093-23.2080078-7.6220093l8.9290161-16.2680054L962.2689819,466
			c0,0-36.6890259-9.2510071-36.6890259-48.4630127c0-30.6260071,36.7819824-45.8190002,37.8250122-53.1270142
			L963.4050293,364.4100037z M1038.9429932,468.7869873L1038.9429932,468.7869873c0,0,22.6550293-5.5390015,31.1149902-16.7229919
			c9.4180908,8.2292786,20.4938965,14.3397522,32.4780273,17.9179993c0,0-18.4520264,8.3299866-32.4780273,18.9410095
			c-6.4639893-9.2630005-31.1149902-20.1359863-31.1149902-20.1359863V468.7869873z M960.7310181,468.7870483
			L960.7310181,468.7870483c0,0-24.6500244,10.8739929-31.1129761,20.1359863
			c-14.0280151-10.6109924-32.4799805-18.9410095-32.4799805-18.9410095
			c11.9849243-3.5776978,23.0614624-9.6882019,32.4799805-17.9179993
			c8.4610596,11.1839905,31.1129761,16.7229919,31.1129761,16.7229919V468.7870483z M1006.2369995,385.2290649l17.348999-8.2489929
			l-8.2470093,17.3500061l18.0880127,6.427002l-18.0880127,6.428009l8.2470093,17.2919922l-17.348999-8.2479858
			l-6.427002,18.0880127l-6.3720093-18.0880127l-17.348999,8.2479858l8.2479858-17.2919922l-18.0880127-6.428009
			l18.0880127-6.427002l-8.2479858-17.3500061l17.348999,8.2489929l6.3720093-18.0889893L1006.2369995,385.2290649z
			 M958.059021,375.5010681h-0.0019531c0,0-26.9040527,19.2990112-26.9040527,42.0360107
			c0,36.6260071,37.1420288,45.6759949,37.1420288,45.6759949l-8.3610229,18.8269958c0,0,11.512085,1.7250061,18.5430298,7.394989
			c9.3770142,7.5620117,9.5,27.9910278,9.5,41.8079834c0,16.2750244-0.6040039,23.1710205-6.4849854,27.5869751
			c-6.2000122,4.6589966-10.8629761,5.6619873-10.8629761,10.4099731c0,4.1380005,4.8280029,5.8289795,11.09198,8.5889893
			c7.125,3.1400146,7.7780151,8.5889893,18.0880127,8.5889893s11.0200195-5.4489746,18.1450195-8.5889893
			c6.2650146-2.7600098,11.092041-4.4509888,11.092041-8.5889893c0-4.7479858-4.6639404-5.7509766-10.8640137-10.4099731
			c-5.8800049-4.4160156-6.4849854-11.3120117-6.4849854-27.5869751c0-13.8170166,0.1229858-34.2460022,9.5-41.8079834
			c7.0300293-5.6690063,18.5429688-7.394989,18.5429688-7.394989l-8.3620605-18.8269958
			c0,0,37.144043-9.0499878,37.144043-45.6759949c0-22.7369995-26.9050293-42.0360107-26.9050293-42.0360107
			c-1.5080566,3.2489929,12.2869873,23.2779846,12.2869873,39.70401c0,20.1430054-10.7419434,32.0239868-25.0849609,32.0239868
			c-2.7359619,0-5.7269897,3.696991-8.3049927,3.696991c-4.2020264,0-6.9980469-4.6640015-9.5559692-4.6640015
			c-3.2529907,0-5.5020142,5.118988-11.1489868,5.118988c-5.6459961,0-7.8389893-5.118988-11.0910034-5.118988
			c-2.559021,0-5.3540039,4.6640015-9.5560303,4.6640015c-2.5770264,0-5.5689697-3.696991-8.3049927-3.696991
			c-14.3430176,0-25.085022-11.881012-25.085022-32.0239868c0-16.4259949,13.7950439-36.4550171,12.2869873-39.70401H958.059021z
			 M995.7139893,390.8600769l-11.0349731-5.2900085l5.2329712,11.0910034l-11.4899902,4.0960083l11.4899902,4.0950012
			l-5.2329712,11.0350037l11.0349731-5.2330017l4.0960083,11.4899902l4.1519775-11.4899902l11.0349731,5.2330017
			l-5.2329712-11.0350037l11.4910278-4.0950012l-11.4910278-4.0960083l5.2329712-11.0910034l-11.0349731,5.2900085
			l-4.0949707-11.5480042L995.7139893,390.8600769z M929.276001,457.6390686v-0.0010071
			c-7.901001,8.0559998-21.3310547,12.6849976-21.3310547,12.6849976s14.0100098,6.9779968,21.0460205,13.196991v0.79599
			c0.1259766-0.1560059,0.2670288-0.302002,0.3979492-0.4549866c0.0699463,0.0620117,0.1630249,0.1090088,0.2290039,0.1700134
			v-0.45401c6.6500244-7.6350098,18.9970703-14.1069946,18.9990234-14.1069946
			C948.6169434,469.4700623,936.7530518,466.1980591,929.276001,457.6390686z M1070.4000244,457.6390686
			c-7.4759521,8.5589905-19.3389893,11.8309937-19.3389893,11.8309937s12.3480225,6.4720154,18.9990234,14.1069946
			c-0.0019531,0.0159912,0,0.45401,0,0.45401c0.0649414-0.0620117,0.157959-0.1069946,0.2270508-0.1700134
			c0.1298828,0.1539917,0.2709961,0.2999878,0.3969727,0.4549866c0,0,0.0009766-0.7510071,0-0.79599
			c7.0369873-6.2189941,21.0469971-13.196991,21.0469971-13.196991S1078.302124,465.6940613,1070.4000244,457.6390686z
			 M978.8200073,501.7210693l-8.8170166,8.8169861l-8.815979-8.8169861l8.815979-8.8160095L978.8200073,501.7210693z
			 M1038.4899902,501.7210693l-8.8170166,8.8169861l-8.815979-8.8169861l8.815979-8.8160095L1038.4899902,501.7210693z
			 M965.3390503,501.7200623l4.6639404,4.6650085l4.6079712-4.6650085l-4.6079712-4.6059875L965.3390503,501.7200623z
			 M1025.065918,501.7200623l4.6070557,4.6650085l4.6650391-4.6650085l-4.6650391-4.6059875L1025.065918,501.7200623z
			 M961.8709717,510.5379944L961.8709717,510.5379944l16.2109985,3.1850281
			c5.9799805,3.7119751,4.6870117,25.4879761,3.5269775,31.3989868
			c-2.4749756,12.6090088-14.9039917,16.2680054-14.9039917,16.2680054
			c0.8231812-5.6304321,1.1846924-11.3186646,1.0810547-17.0079956c0.0089111-11.5392456-1.9926758-22.9918213-5.914978-33.8439941
			L961.8709717,510.5379944z M1037.8070068,510.5379944L1037.8070068,510.5379944
			c-3.9233398,10.8523254-5.925293,22.3053284-5.9160156,33.8450012c-0.1035156,5.68927,0.2576904,11.3775024,1.0799561,17.0079956
			c0,0-12.4279785-3.6589966-14.9030151-16.2680054c-1.1599731-5.9119873-2.4530029-27.6879883,3.5269775-31.3989868
			l16.2119751-3.1860046H1037.8070068z M931.6669922,514.0648804l-0.0009766-0.0009766l0,0
			c5.6981812-0.2954102,10.5568848,4.0843506,10.8522949,9.7825317c0.0118408,0.2276001,0.0161133,0.4555664,0.0128174,0.6834717
			c0.5950928-0.6107788,1.2634888-1.1455078,1.9899902-1.59198c1.4740601-0.9276123,3.1552734-1.4749756,4.8929443-1.5930176
			c3.8161011-0.2651978,7.4678955,1.5935669,9.4990234,4.835022c3.0603638,4.9038086,1.5865479,11.3585205-3.2989502,14.447998
			c-0.7293701,0.4558716-1.5127563,0.8189697-2.3319702,1.0809937c0.7729492,0.3654175,1.4985962,0.8234863,2.1610107,1.3640137
			c4.3933716,3.7313232,4.9300537,10.317749,1.1987305,14.7111206c-3.7313843,4.3933716-10.317749,4.9300537-14.7111206,1.1987305
			c-0.6273193-0.5328369-1.1894531-1.1380005-1.6746216-1.8028564c-0.1054688,0.8383179-0.3157959,1.6600342-0.6259766,2.4459839
			c-2.1259766,5.3665161-8.1998901,7.9934082-13.5663452,5.8674316c-5.3665161-2.1260376-7.9934692-8.1998901-5.8674316-13.5664063
			c0.0124512-0.0313721,0.0250244-0.0627441,0.0377808-0.0940552c0.3226929-0.7886963,0.7429199-1.5338745,1.2509766-2.2180176
			c-5.6863403,0.8954468-11.0219116-2.9883423-11.9173584-8.6746826s2.9883423-11.0219116,8.6746826-11.9173584
			c0.7145996-0.1125488,1.4390259-0.1503296,2.161499-0.112854c0.871582,0.0615845,1.7318115,0.2336426,2.5600586,0.5120239
			c-2.7818604-4.9755859-1.00354-11.2642212,3.9720459-14.0460815c0.8242188-0.4608154,1.7077026-0.8063354,2.6258545-1.0269165
			c0.6903076-0.1652832,1.3955688-0.260437,2.1049805-0.2839966L931.6669922,514.0648804z M967.5579834,515.4290771v0.0009766l0,0
			c1.3150635,7.3339844,3.8109741,13.1559448,3.8109741,37.3709717c0,0,7.5649414-3.8599854,7.5649414-13.9349976
			c0-9.9920044,0.5469971-17.1729736-2.6719971-21.6160278l-8.7039795-1.8209839L967.5579834,515.4290771z M1032.118042,515.4290161
			L1032.118042,515.4290161L1023.4160156,517.25c-3.2199707,4.4429932-2.6740112,11.6240234-2.6740112,21.6149902
			c0,10.0750122,7.565979,13.9349976,7.565979,13.9349976
			C1028.3079834,528.5859985,1030.802002,522.7640381,1032.118042,515.4290161z M932.2921143,518.4450073h-0.0009766v-0.0009766
			c-0.5562744,0.0201416-1.1091309,0.0965576-1.6500244,0.2280273c-4.3503418,1.0848999-6.99823,5.4902344-5.914978,9.8410034
			c0.2261963,0.8504639,0.5914307,1.6577148,1.0810547,2.3889771c0.4113159,0.6343384,0.9087524,1.2084961,1.4780273,1.7059937
			c3.2167969-3.6099243,8.2984619-4.9139404,12.8560181-3.2990112c0.2651367-0.6551514,0.437439-1.3441772,0.5120239-2.0469971
			c0.0962524-0.8945313,0.0387573-1.7988892-0.1699829-2.6740112c-0.9251099-3.7329712-4.3483276-6.3002319-8.190979-6.1430054
			H932.2921143z M1062.2650146,521.8010254h0.0009766l-0.0009766-0.0009766
			c9.46875,0.0887451,18.2302246,5.027832,23.2080078,13.0830078c-2.0108643-0.4887085-4.0726318-0.7371216-6.1419678-0.7399902
			c-13.3549805,0-23.1259766,10.2340088-21.7860107,22.8670044c0.3916016,3.493042,1.5574951,6.8547363,3.4129639,9.8400269
			c-10.6899414-2.5499878-19.3470459-11.4749756-20.4770508-22.1270142
			c-1.3409424-12.632019,8.4310303-22.9219971,21.7840576-22.9219971V521.8010254z M948.5601807,524.7011719h-0.0009766
			c-1.6259766-0.0509644-3.2301025,0.3846436-4.6069946,1.2509766c-0.7324219,0.4614868-1.3858032,1.0378418-1.9350586,1.7069702
			c-0.4767456,0.6029053-0.8600464,1.2740479-1.1370239,1.9910278c4.2851563,1.9160156,7.0464478,6.1690063,7.0529785,10.8629761
			c0,0.117981,0.0030518,0.2260132,0,0.34198c0.7221069,0.0628052,1.4495239,0.0244141,2.1610107-0.1140137
			c4.3733521-1.008606,7.1010132-5.371582,6.0924072-9.7449341c-0.8259888-3.581604-3.9532471-6.1629028-7.6264648-6.2950439
			L948.5601807,524.7011719z M1062.2650146,526.5221558h0.0019531c-10.9329834,0-18.1800537,7.7139893-17.1219482,17.690979
			c0.5429688,5.1229858,3.5810547,9.7559814,7.7349854,13.1959839c-1.3649902-13.4429932,8.0140381-24.9539795,21.0460205-27.473999
			c-3.4963379-2.1947632-7.5330811-3.3762817-11.6610107-3.4130249V526.5221558z M922.3378296,531.413147L922.3378296,531.413147
			c-4.4758911-0.3272095-8.3696289,3.0359497-8.6968384,7.5119019c-0.3272705,4.4758911,3.0359497,8.3696289,7.5118408,8.6968384
			c0.0153198,0.0010986,0.0307007,0.0021973,0.0460205,0.0032349c0.8225708,0.050293,1.6479492-0.0266113,2.4470215-0.2280273
			c0.786499-0.2000122,1.5352783-0.5266113,2.21698-0.96698c-1.0450439-1.7962646-1.5941162-3.8378906-1.5909424-5.9160156
			c-0.0100098-2.6569824,0.8709106-5.2406006,2.5019531-7.3380127c-0.5606689-0.4326172-1.171814-0.7955933-1.8199463-1.0809937
			c-0.8259888-0.3770142-1.7111206-0.6077881-2.6160278-0.6820068L922.3378296,531.413147z M928.2520142,540.5150757
			c0.0316772,4.3356934,3.5721436,7.8247681,7.9078369,7.7930908s7.8247681-3.5720825,7.7930908-7.9077759
			c-0.0314941-4.3131104-3.5366821-7.7930298-7.8499146-7.793335c-4.3308716-0.005249-7.8460083,3.5014038-7.8511963,7.8322754
			c-0.000061,0.0252686,0.000061,0.0504761,0.0002441,0.0756836L928.2520142,540.5150757z M947.8770142,541.651062v0.0009766
			c-0.4682007,4.8239136-3.8242798,8.8776245-8.4760132,10.2379761c0.185791,0.6746216,0.453064,1.3240967,0.7960205,1.934021
			c0.442688,0.7950439,1.0199585,1.5072632,1.7060547,2.1049805c3.4542236,2.8734131,8.5837402,2.4025879,11.4571533-1.0516357
			c2.8536987-3.430542,2.411438-8.5195313-0.9912109-11.4063721c-0.6672363-0.5335693-1.4161987-0.9559937-2.2180176-1.2509766
			C949.421936,541.9292603,948.6571045,541.737915,947.8770142,541.651062z M926.2611694,547.1129761L926.2611694,547.1129761
			c-0.635437,0.3876953-1.2102661,0.8668213-1.7060547,1.4219971c-0.5749512,0.6586304-1.0365601,1.4081421-1.3660278,2.2180176
			c-1.6601563,4.1866455,0.3879395,8.9263916,4.574585,10.5865479c4.1572876,1.6485596,8.8667603-0.3587646,10.5563965-4.4995728
			c0.3060303-0.8008423,0.479248-1.6463013,0.5129395-2.5029907c0.0333252-0.765686-0.043457-1.5321655-0.2280273-2.276001
			c-4.7421875,1.0647583-9.6501465-0.9025879-12.3439941-4.947998H926.2611694z M985.7589722,566.4519653
			c1.9439697,0,4.1530151,1.1890259,4.1530151,3.7550049c0,2.5650024-2.2080078,3.6970215-4.1530151,3.6970215
			c-7.2960205,0-11.9440308-1.4819946-11.9440308-3.6970215s4.6469727-3.7550049,11.9439697-3.7550049H985.7589722z
			 M1025.8609619,570.2069702c0,2.2150269-4.6469727,3.6970215-11.9439697,3.6970215
			c-1.9450073,0-4.1539917-1.132019-4.1530151-3.6970215c0-2.565979,2.2080078-3.7550049,4.1530151-3.7550049
			c7.2960815,0.000061,11.9440918,1.5390625,11.9440918,3.7550049H1025.8609619z"/>
		<path id="rect2189" style="&st4;" d="M881.8950195,356.0490112h235.8300781c0,0-9.6700439,7.2550049-9.6700439,14.6180115
			v175.5369568c0.1030273,3.8503418-1.1898193,7.6080933-3.6400146,10.5800171
			c-2.2669678,3.1699829-7.098999,7.5499878-12.1149902,10.8079834
			c-15.4899902,10.059021-41.3869629,20.6660156-60.9770508,29.5780029
			c-16.3280029,7.4279785-23.0250244,10.4229736-31.5130005,20.9320068
			c-8.4869995-10.5089722-15.1270142-13.5050049-31.4550171-20.9320068
			c-19.59198-8.9119873-45.4879761-19.5189819-60.9769897-29.5780029
			c-5.0150146-3.2579956-9.8480225-7.6380005-12.1160278-10.8079834c-2.4682617-2.96521-3.781311-6.7228394-3.6970215-10.5800171
			V370.6669922c0-7.3630066-9.6699829-14.6180115-9.6699829-14.6180115L881.8950195,356.0490112z M894.2940063,361.6230164
			h0.0009766c1.899353,2.6286621,2.8970337,5.8013916,2.8439941,9.0440063v175.5369568
			c0,3.8309937,3.9749756,12.8060303,26.9050293,24.2310181c37.9019775,18.8859863,67.0349731,27.7039795,75.7659912,38.4520264
			c8.7310181-10.7479858,37.8639526-19.565979,75.7660522-38.4520264
			c22.9300537-11.4249878,26.9050293-20.4000244,26.9050293-24.2310181V370.6669922
			c-0.0531006-3.2426147,0.9445801-6.4153442,2.8439941-9.0440063H894.2940674L894.2940063,361.6230164z"/>
		<path id="path2193" style="&st3;" d="M994.5150757,248.8029938L994.5150757,248.8029938l0.0009766-0.0019989
			c0-3.423996-3.6790161-6.2180023-8.1920166-6.2180023c-4.5120239,0-8.1920166,2.7929993-8.1920166,6.2180023
			s3.6799927,6.2180023,8.1920166,6.2180023c4.5130005,0,8.1920166-2.7929993,8.190979-6.2160034H994.5150757z"/>
		<path id="path2192" style="&st6;" d="M947.0340576,245.2089996c2.1123047-0.9545898,4.4093628-1.4309235,6.7270508-1.3950043
			c16.1339111,0,21.9139404,10.4179993,21.9139404,10.4179993c0-5.6390076-5.6949463-11.0630035-6.9439697-14.3090057
			c0,0-9.3730469,0.1970062-12.2130127,0.1970062c-3.8430176-0.1191864-7.4578247,1.8206787-9.4829712,5.0890045H947.0340576z"/>
		<path id="path2194" style="&st3;" d="M967.8239746,246.6349945c-0.0326538-1.0526123-0.3378906-2.0787354-0.8859863-2.9779968
			c-1.151001-1.3200073-3.0770264-1.3209991-3.0770264,0.375c0,1.3320007,3.9639893,2.6029968,3.9639893,2.6029968H967.8239746z"/>
		<path id="path2196" style="&st6;" d="M973.2639771,256.2260132L973.2639771,256.2260132
			c-8.4870605,1.0870056-13.5150146-1.848999-13.5150146-1.848999s5.9320068,6.1130066,9.3319702,7.401001
			c0.7459717-1.9320068,4.184021-5.552002,4.184021-5.552002H973.2639771z"/>
		<g id="g2348">
			<path id="path2206" style="&st3;" d="M1226.3699951,437.3879395v15.6430054l-3.2989502,0.5690002
				c0.3937988,1.4747925,0.2735596,3.0397034-0.3409424,4.4370117c-1.0450439,2.0509949-4.3800049,2.3320007-4.3800049,2.3320007
				s7.9029541,9.0859985,8.0200195,11.3190002c0.105957,2.019989-8.0009766,4.980011-13.0250244,10.0109863
				c-7.0050049,7.0150146-4.0770264,9.6789856-5.5179443,10.92099c-1.4000244,1.2080078-4.7209473,1.5369873-4.7209473,1.5369873
				s0.7629395,2.243988,0.282959,3.1849976c-0.7709961,1.5140076-3.7840576,2.1440125-4.7209473,3.9819946
				c-5.2209473,10.2470093-12.9329834,25.3729858-18.0319824,35.3800049
				c-0.7120361,1.3979492-0.0080566,3.2410278-0.9659424,5.1209717c-0.8096924,1.2088623-1.986084,2.1258545-3.355957,2.6160278
				c0,0,1.7989502,2.875,0.6259766,5.1760254c-1.2449951,2.4449463-4.3809814,3.8109741-4.3809814,3.8109741
				c0.6154785,1.2359619,0.6154785,2.6890259,0,3.9249878c-1.1209717,2.2009888-3.1459961,1.3640137-3.6400146,2.3319702
				c-6.8520508,13.4470215-14.9260254,29.2969971-19.8520508,38.9639893
				c-1.8110352,3.5550537,1.2921143,9.0440063-2.3890381,16.2670288c-1.9816895,4.0431519-6.2700195,6.4262695-10.75,5.973999
				c0,0,2.8299561,4.5739746,1.4229736,7.3380127c-1.4370117,2.815979-5.618042,4.3939819-9.4439697,2.4450073
				c-3.8260498-1.9500122-4.9620361-6.2280273-3.5269775-9.0440063c1.4090576-2.7639771,6.7120361-3.242981,6.7120361-3.242981
				c-3.0267334-3.3282471-3.6411133-8.1972046-1.5360107-12.1729736
				c3.6800537-7.2230225,10.0209961-7.9349976,11.8330078-11.4899902
				c4.9250488-9.6660156,12.9980469-25.5170288,19.8520508-38.9639893c0.4909668-0.9680176-1.407959-2.1220093-0.2869873-4.322998
				c0.6448975-1.2282715,1.8212891-2.0894775,3.1870117-2.3330078c-0.4039307-1.9230347-0.225708-3.9227905,0.5119629-5.7440186
				c1.1719971-2.302002,4.5510254-2.5029907,4.5510254-2.5029907c-0.3939209-1.4044189-0.3344727-2.8973999,0.1700439-4.2659912
				c0.9580078-1.8800049,2.8719482-2.4140015,3.5839844-3.8109741c5.098999-10.0079956,12.8100586-25.1340027,18.0319824-35.381012
				c0.9360352-1.8370056-0.3740234-4.6289978,0.3979492-6.1430054c0.4790039-0.9410095,2.7299805-1.6499939,2.7299805-1.6499939
				s-1.6330566-2.8779907-1.4790039-4.7210083c0.157959-1.8970032,4.0169678-1.0750122,5.5739746-10.8640137
				c1.118042-7.0230103-1.2979736-15.3380127,0.3990479-16.4389954c1.875-1.2179871,13.8790283-0.17099,13.8790283-0.17099
				s-1.7270508-2.8970032-0.6829834-4.9490051c0.7562256-1.3076782,1.942749-2.3124695,3.3570557-2.8429871l-1.4229736-3.0140076
				l12.6280518-9.2160034L1226.3699951,437.3879395z M1107.6571045,662.6959229L1107.6571045,662.6959229
				c1.2276611-0.078125,2.4519043,0.1981812,3.5269775,0.7960205c3.6070557,1.8380127,3.5379639,4.7750244,3.0150146,5.802002
				c-0.5606689,1.0683594-1.5953369,1.8069458-2.7879639,1.9899902c0,0,3.3280029,2.5369873,3.5839844,4.0390015
				c0.2409668,1.4140015-15.6419678,11.434021-15.6419678,11.434021s-1.2860107-18.7600098,0-19.3969727
				c1.3659668-0.6760254,5.3470459,0.5689697,5.3470459,0.5689697c-0.5443115-1.0922852-0.5443115-2.376709,0-3.4689941
				c0.6435547-1.0304565,1.7445068-1.6872559,2.9570313-1.7639771L1107.6571045,662.6959229z"/>
			<path id="path2220" style="&st4;" d="M1224.0300293,441.9960022h0.0009766l0.1130371,9.0440063l-3.7550049-1.8760071
				l-3.7530518-1.9349976l7.3950195-5.2330017H1224.0300293z M1216.8630371,450.6990051h0.0009766
				c0.8466797-0.0544739,1.6922607,0.1224976,2.4460449,0.5119934c1.7928467,1.1722107,2.2958984,3.5758362,1.1236572,5.3686523
				c-1.1721191,1.7928162-3.5758057,2.2958984-5.3686523,1.1236877c-1.65979-1.0852966-2.2335205-3.2479553-1.3299561-5.0133362
				c0.6153564-1.1719055,1.8059082-1.9296875,3.1280518-1.9909973H1216.8630371z M1202.9279785,459.4020081h0.0009766
				c3.3389893-0.0429993,9.3840332,0.2839966,9.3850098,0.2839966c0,0-6.5889893,1.6400146-7.3950195,2.1610107
				c-0.9250488,0.6000061-0.822998,11.8320007-3.9820557,18.0310059c-2.6779785,5.2569885-4.3800049,7.9079895-4.3800049,7.9079895
				l-2.6159668-2.6170044c0,0,3.1619873-2.0339966,4.0379639-3.7550049c0.9499512-1.8640137,2.6860352-3.3909912,2.901001-8.8160095
				c0.2280273-5.7520142-0.8470459-12.5130005-0.0570068-13.0249939c0.6899414-0.157074,1.3988037-0.2146606,2.1049805-0.17099
				H1202.9279785z M1214.4169922,460.9380188L1214.4169922,460.9380188v0.0010071c0,0,2.9200439,6.3309937,2.7299805,7.678009
				c-0.18396,1.3059998-8.0379639,6.5440063-11.717041,13.7650146c-1.458252,2.7339783-2.7684326,5.5443726-3.9250488,8.4190063
				l-1.8769531-0.9100037l-1.8769531-0.9670105c1.6636963-2.6460571,3.1826172-5.3804016,4.5500488-8.1910095
				c3.6789551-7.2210083,3.2619629-16.6040039,4.2089844-17.5190125
				C1207.4890137,462.2670288,1214.4169922,460.9380188,1214.4169922,460.9380188z M1216.6359863,461.8470154h0.0009766
				c0,0,6.7790527,8.4029846,6.8249512,9.2720032c0.0500488,0.9400024-6.0600586,4.0570068-10.5799561,7.6220093
				c-4.2619629,3.3619995-4.5119629,5.644989-5.4610596,7.5079956c-0.8759766,1.7200012-0.625,5.4609985-0.625,5.4609985
				l-3.6409912-0.5690002c0,0,1.1330566-2.9339905,3.8110352-8.1910095
				c3.1590576-6.1990051,12.2879639-12.7219849,12.2290039-13.821991
				C1219.1439209,468.1710205,1216.6359863,461.8470154,1216.6359863,461.8470154z M1196.0449219,491.6540222l0.0009766-0.0010071
				v0.0010071c0.8291016-0.0706787,1.6604004,0.1072083,2.3879395,0.5109863
				c2.4420166,1.2449951,2.6199951,3.2070007,1.8769531,4.6650085c-0.69104,1.3569946-2.3659668,2.0899963-7.8499756,12.855011
				c-2.4060059,4.7200012-3.3740234,6.6750183-5.973999,11.7740173c-2.6429443,5.1879883-6.4840088,12.6849976-6.4840088,12.6849976
				c-0.506958,1.2766724-1.9530029,1.9005737-3.2296143,1.3935547c-0.1021729-0.0405273-0.2015381-0.0878296-0.2973633-0.1415405
				c-1.2938232-0.6103516-1.8480225-2.1539917-1.2376709-3.447876c0.0308838-0.0654297,0.0644531-0.1295166,0.100708-0.1921387
				c0,0,3.8409424-7.4959717,6.4840088-12.6849976c2.5999756-5.098999,3.5689697-6.9979858,5.973999-11.7170105
				c5.4859619-10.7650146,5.1109619-12.57901,5.802002-13.9370117
				C1194.0562744,492.4473877,1194.9803467,491.781311,1196.0449219,491.6540222z M1172.4379883,536.5339355h0.0019531
				c1.0668945-0.0612183,2.1300049,0.1745605,3.0710449,0.6810303c2.1330566,1.0869751,3.3530273,3.0469971,2.6739502,4.3809814
				c-0.6800537,1.3339844-2.9880371,1.539978-5.1199951,0.4550171c-2.1330566-1.0869751-3.2960205-3.0460205-2.6159668-4.3809814
				c0.4187012-0.7005005,1.1729736-1.1312866,1.9890137-1.1359863V536.5339355z M1169.2529297,543.0739136
				c0.9940186,0.0606079,1.9638672,0.3319702,2.8449707,0.7960205c2.5789795,1.315979,3.9510498,3.7919922,3.0720215,5.5189819
				c-0.8800049,1.7249756-3.6779785,2.0540161-6.256958,0.7399902c-2.5810547-1.315979-3.9520264-3.7940063-3.0720215-5.5189819
				C1166.5808105,543.475708,1167.913208,542.8758545,1169.2529297,543.0739136z M1164.9298096,551.2089844h0.0019531
				c1.0853271-0.060791,2.166748,0.175293,3.1280518,0.6829834c2.131958,1.0859985,3.2960205,3.0460205,2.6159668,4.3800049
				c-0.6810303,1.3330078-2.9880371,1.5410156-5.1199951,0.4539795c-2.131958-1.0859985-3.2960205-3.0460205-2.6169434-4.3790283
				c0.4196777-0.7006836,1.1741943-1.131958,1.9909668-1.1380005V551.2089844z M1163.0539551,558.2059326h0.0009766
				c0.5473633-0.0742188,1.104126,0.0250854,1.592041,0.2839966c1.2738037,0.6062012,1.8150635,2.1303101,1.2088623,3.4041748
				c-0.0384521,0.0808105-0.0810547,0.1595459-0.1278076,0.2358398c0,0-13.8330078,27.2210083-18.7149658,36.802002
				c-1.5579834,3.0599976,0.7509766,9.5180054-1.8189697,14.5629883c-2.5870361,5.0759888-7.5450439,6.3270264-10.9219971,4.6060181
				c-3.3769531-1.7189941-5.2039795-6.4699707-2.6159668-11.5460205c2.5699463-5.0449829,9.1350098-6.9509888,10.6939697-10.0109863
				c4.8809814-9.5800171,18.7120361-36.802002,18.7120361-36.802002c0.3918457-0.791626,1.126709-1.3583374,1.9919434-1.5360107
				H1163.0539551z M1129.6639404,620.8880005c0.9903564-0.0146484,1.9683838,0.2202148,2.8439941,0.6829834
				c2.5240479,1.2849731,3.7659912,3.9959717,2.7299805,6.0289917s-3.9610596,2.6519775-6.4849854,1.3649902
				c-2.5240479-1.2849731-3.7089844-3.9949951-2.6729736-6.0289917c0.7277832-1.2890625,2.1038818-2.0750732,3.5839844-2.0469971
				V620.8880005z M1107.6508789,664.5170288c0.9296875-0.0189819,1.8492432,0.1962891,2.6739502,0.6259766
				c1.8800049,0.9580078,2.9759521,2.5999756,2.4460449,3.6400146c-0.5310059,1.039978-2.4990234,1.1290283-4.3800049,0.1710205
				c-1.8809814-0.9589844-2.9759521-2.6010132-2.4460449-3.6400146
				C1106.3289795,664.7611694,1106.9803467,664.4569092,1107.6508789,664.5170288z M1101.1657715,669.6360474
				c4.3781738-0.2402954,8.5484619,1.8878174,10.9229736,5.5739746l-10.9229736,7.8510132v-13.4250488V669.6360474z"/>
		</g>
		<path id="path2191" style="&st4;" d="M992.0139771,248.8029938l0.0009766-0.0019989
			c-0.0005493-3.1414032-2.5476074-5.6875458-5.6890259-5.6869965c-3.1413574,0.0005493-5.6875,2.5475922-5.6869507,5.6889954
			s2.5476074,5.6875458,5.6889648,5.6869965c3.140625-0.0005493,5.6864624-2.5463867,5.6870117-5.6869965H992.0139771z"/>
		<path id="path2189" style="&st3;" d="M988.9349976,248.8029938L988.9349976,248.8029938
			c0.0002441-1.4400787-1.1669312-2.6077118-2.6069946-2.6079865s-2.6077271,1.1669159-2.6079712,2.6069946
			c-0.0003052,1.4400787,1.1669312,2.6077118,2.6069946,2.6079865c0.0003052,0,0.0006714,0,0.0009766,0
			C987.7666626,251.4071655,988.9321899,250.2416229,988.9349976,248.8029938z"/>
	</g>
</g>
</svg>
